<svg width="1176" height="436" viewBox="0 0 1176 436" fill="none" xmlns="http://www.w3.org/2000/svg">
<g opacity="0.55">
<path opacity="0.55" d="M735.103 110.36C738.617 112.663 740.823 116.501 741.044 120.696L740.561 237.051C740.561 240.867 737.808 242.364 734.524 240.481L605.176 165.809C601.668 163.501 599.464 159.665 599.235 155.473L599.573 39.1179C599.573 35.3505 602.278 33.8048 605.563 35.6885L735.103 110.36Z" fill="url(#paint0_linear)"/>
</g>
<g opacity="0.42">
<path opacity="0.42" d="M735.103 110.36C738.617 112.663 740.823 116.501 741.044 120.696L740.561 237.051C740.561 240.867 737.808 242.364 734.524 240.481L605.176 165.809C601.668 163.501 599.464 159.665 599.235 155.473L599.573 39.1179C599.573 35.3505 602.278 33.8048 605.563 35.6885L735.103 110.36Z" fill="url(#paint1_linear)"/>
</g>
<g opacity="0.42">
<path opacity="0.42" d="M727.954 113.45C731.468 115.752 733.674 119.591 733.895 123.786L733.605 240.141C733.605 243.908 730.9 245.454 727.568 243.57L598.22 168.898C594.712 166.59 592.508 162.755 592.279 158.562L592.617 42.2069C592.617 38.4395 595.322 36.8941 598.607 38.7778L727.954 113.45Z" fill="url(#paint2_linear)"/>
</g>
<path d="M721 116.832C724.514 119.14 726.734 122.971 726.989 127.168L726.651 243.523C726.651 247.339 723.946 248.836 720.613 246.952L591.314 172.281C587.776 169.995 585.549 166.151 585.325 161.944L585.663 45.5893C585.663 41.8219 588.368 40.2765 591.652 42.1602L721 116.832Z" fill="url(#paint3_linear)"/>
<g opacity="0.41">
<path opacity="0.41" d="M679.751 130.787C689.974 137.45 696.399 148.595 697.042 160.781C697.042 171.794 689.218 176.237 679.606 170.731C669.383 164.068 662.957 152.922 662.314 140.736C662.363 129.579 670.139 125.136 679.751 130.787ZM679.751 166.094C671.882 160.985 666.928 152.423 666.42 143.055C666.42 134.602 672.457 131.173 679.799 135.424C687.668 140.533 692.622 149.094 693.13 158.462C693.13 166.915 687.092 170.344 679.751 166.094Z" fill="url(#paint4_linear)"/>
</g>
<path d="M646.569 135.621C646.701 135.422 646.814 135.212 646.908 134.993V134.751C646.908 134.751 646.908 134.317 647.149 134.123V133.834C647.176 133.625 647.176 133.414 647.149 133.206C647.178 133.095 647.178 132.978 647.149 132.867C647.17 132.675 647.17 132.481 647.149 132.288C647.128 132.095 647.149 131.998 647.149 131.901V131.273C647.172 131.13 647.172 130.983 647.149 130.839C647.176 130.614 647.176 130.387 647.149 130.163C647.173 130.035 647.173 129.904 647.149 129.776C647.125 129.648 647.149 129.245 647.149 129.004V128.665C647.174 128.263 647.174 127.86 647.149 127.458C647.149 126.733 647.149 125.961 647.149 125.14V123.98C647.006 122.778 646.796 121.585 646.521 120.406C644.236 110.869 638.83 102.369 631.162 96.2559C630.238 95.5358 629.27 94.8745 628.264 94.2758V96.401C618.604 90.8465 610.876 95.2901 610.828 106.061V106.641L608.992 105.578C609.941 118.868 617.101 130.933 628.312 138.132C635.654 142.383 642.078 141.32 645.314 136.249L646.569 135.621ZM615.899 109.104L618.604 110.698C619.196 117.938 623.1 124.499 629.182 128.472C631.261 129.955 633.944 130.299 636.33 129.39L637.103 128.955L637.779 128.376L638.358 127.699L638.793 126.975C638.935 126.731 639.048 126.472 639.131 126.202C639.131 126.202 639.131 125.671 639.131 125.429C639.131 125.188 639.131 125.429 639.131 125.14C639.155 124.85 639.155 124.56 639.131 124.27C639.154 124.175 639.154 124.076 639.131 123.98C639.157 123.562 639.157 123.143 639.131 122.725C639.091 120.784 638.749 118.861 638.117 117.025C637.209 114.205 635.802 111.571 633.963 109.249L633.142 108.283C632.382 107.418 631.559 106.611 630.679 105.868C629.989 105.32 629.263 104.82 628.505 104.371V101.279C621.164 97.0289 615.174 100.41 615.126 108.911C615.851 108.814 615.899 109.007 615.899 109.201V109.104Z" fill="url(#paint5_linear)"/>
<g opacity="0.54">
<path opacity="0.54" d="M620.825 99.3948C631.065 106.026 637.511 117.159 638.165 129.341C638.165 140.402 630.292 144.845 620.729 139.291C610.487 132.639 604.043 121.491 603.389 109.296C603.437 98.2838 611.262 93.8403 620.825 99.3948ZM620.825 134.654C612.963 129.545 608.024 120.979 607.543 111.615C607.543 103.162 613.532 99.7813 620.922 104.032C628.776 109.125 633.715 117.673 634.204 127.022C634.204 135.523 628.215 138.904 620.825 134.654Z" fill="url(#paint6_linear)"/>
</g>
<path d="M620.826 97.2701C632.219 104.566 639.408 116.895 640.146 130.404C640.146 142.576 631.5 147.502 620.826 141.368C609.614 134.169 602.454 122.104 601.506 108.814L610.055 113.644C610.647 120.884 614.551 127.445 620.632 131.418C626.525 134.799 631.307 132.094 631.307 125.332C630.93 117.872 626.996 111.045 620.729 106.978L620.826 97.2701Z" fill="url(#paint7_linear)"/>
<path d="M620.825 97.2701V106.93C627.092 110.997 631.026 117.823 631.403 125.284C631.724 128.1 630.362 130.841 627.925 132.288L633.335 143.058C637.978 140.55 640.606 135.448 639.952 130.211C639.197 116.808 632.091 104.57 620.825 97.2701Z" fill="url(#paint8_linear)"/>
<path opacity="0.11" d="M655.988 166.433V168.848L685.692 185.995V183.58L655.988 166.433Z" fill="url(#paint9_linear)"/>
<path opacity="0.11" d="M655.988 171.021V173.436L676.322 185.173V182.758L655.988 171.021Z" fill="url(#paint10_linear)"/>
<path opacity="0.11" d="M655.988 176.433V178.848L681.973 193.869V191.454L655.988 176.433Z" fill="url(#paint11_linear)"/>
<path opacity="0.11" d="M655.988 181.648V184.015L685.692 201.21V198.795L655.988 181.648Z" fill="url(#paint12_linear)"/>
<path d="M652.655 168.466V170.881L682.359 188.027V185.612L652.655 168.466Z" fill="white"/>
<path d="M652.655 173.05V175.465L672.989 187.202V184.787L652.655 173.05Z" fill="white"/>
<path d="M652.655 178.507V180.874L678.64 195.895V193.48L652.655 178.507Z" fill="white"/>
<path d="M652.655 183.678V186.093L682.359 203.239V200.824L652.655 183.678Z" fill="white"/>
<path opacity="0.11" d="M634.542 157.451L634.494 159.866L641.933 164.164V161.749L634.542 157.451Z" fill="url(#paint13_linear)"/>
<path opacity="0.11" d="M603.292 139.579V141.994L632.996 159.14V156.725L603.292 139.579Z" fill="url(#paint14_linear)"/>
<path opacity="0.11" d="M625.269 157.013V159.428L641.933 169.04V166.625L625.269 157.013Z" fill="url(#paint15_linear)"/>
<path opacity="0.11" d="M603.292 144.169V146.584L623.626 158.321V155.906L603.292 144.169Z" fill="url(#paint16_linear)"/>
<path opacity="0.11" d="M630.727 165.371V167.786L641.933 174.258V171.843L630.727 165.371Z" fill="url(#paint17_linear)"/>
<path opacity="0.11" d="M603.292 149.579V151.994L629.277 167.015V164.6L603.292 149.579Z" fill="url(#paint18_linear)"/>
<path opacity="0.11" d="M634.542 172.71L634.494 175.125L641.933 179.423V177.008L634.542 172.71Z" fill="url(#paint19_linear)"/>
<path opacity="0.11" d="M603.292 154.796V157.163L632.996 174.309V171.943L603.292 154.796Z" fill="url(#paint20_linear)"/>
<path d="M631.162 159.48V161.895L638.6 166.194V163.779L631.162 159.48Z" fill="url(#paint21_linear)"/>
<path d="M599.959 141.608V144.023L629.664 161.169V158.754L599.959 141.608Z" fill="white"/>
<path d="M621.937 159.046V161.461L638.6 171.073V168.706L621.937 159.046Z" fill="url(#paint22_linear)"/>
<path d="M599.959 146.196V148.611L620.294 160.348V157.933L599.959 146.196Z" fill="white"/>
<path d="M627.394 167.399V169.814L638.6 176.286V173.871L627.394 167.399Z" fill="url(#paint23_linear)"/>
<path d="M599.959 151.655V154.021L625.945 169.042V166.627L599.959 151.655Z" fill="white"/>
<path d="M631.162 174.743V177.158L638.6 181.457V179.042L631.162 174.743Z" fill="url(#paint24_linear)"/>
<path d="M599.959 156.824V159.239L629.664 176.386V173.971L599.959 156.824Z" fill="white"/>
<path d="M618.555 74.3749V78.2872L636.909 88.9132V84.9526L618.555 74.3749Z" fill="url(#paint25_linear)"/>
<path d="M616.671 75.4359V79.3965L635.026 89.9742V86.0136L616.671 75.4359Z" fill="url(#paint26_linear)"/>
<path d="M614.353 245.404C610.069 244.193 605.613 243.704 601.167 243.955C598.559 245.115 603.293 246.564 602.954 248.254C602.616 249.945 585.615 258.445 586.87 261.826C588.126 265.207 595.661 260.184 595.661 260.184C595.661 260.184 591.362 263.517 591.894 265.014C592.425 266.511 598.173 263.662 598.173 263.662C598.173 263.662 595.758 265.835 596.482 266.56C597.207 267.284 601.312 264.386 601.312 264.386C601.312 264.386 599.332 265.98 599.622 266.705C604.892 264.323 609.992 261.579 614.884 258.494L617.01 253.277L614.353 245.404Z" fill="url(#paint27_linear)"/>
<path d="M692.309 413.39C692.309 413.39 694.627 424.837 692.309 430.005C691.784 431.854 690.533 433.412 688.84 434.323C687.146 435.233 685.157 435.418 683.325 434.835C678.321 433.822 673.208 433.448 668.11 433.724C664.053 434.497 652.268 435.463 650.867 432.323C649.989 430.973 649.741 429.309 650.185 427.761C650.63 426.214 651.725 424.935 653.185 424.257C656.663 422.567 667.192 422.567 669.849 421.504C672.505 420.441 676.128 415.032 676.128 415.032L689.604 414.259L692.309 413.39Z" fill="url(#paint28_linear)"/>
<path d="M718.927 400.773C718.927 400.773 721.246 412.22 718.927 417.388C718.403 419.237 717.151 420.795 715.458 421.706C713.765 422.616 711.775 422.801 709.943 422.218C704.939 421.205 699.827 420.831 694.729 421.107C690.672 421.88 678.886 422.846 677.486 419.706C676.608 418.356 676.359 416.692 676.804 415.144C677.249 413.597 678.343 412.318 679.804 411.64C683.282 409.95 693.811 409.95 696.468 408.887C699.124 407.824 702.746 402.415 702.746 402.415L716.222 401.642L718.927 400.773Z" fill="url(#paint29_linear)"/>
<path d="M667.483 304.139C667.483 304.139 664.295 335.196 664.971 342.78C665.647 350.363 674.052 416.244 674.052 416.244C675.234 420.21 679.061 422.782 683.18 422.378C687.96 421.89 691.789 418.201 692.454 413.442C692.454 412.187 687.624 345.822 687.624 345.822L692.454 314.766C692.454 314.766 694.483 339.254 695.4 345.533C696.318 351.812 700.762 397.021 702.645 401.706C704.529 406.391 715.203 405.811 717.425 403.589C719.513 401.81 720.684 399.183 720.613 396.441C720.613 393.301 715.783 330.511 715.783 330.511L718.922 304.139L717.328 289.649L713.899 283.998H703.853L689.99 287.766L679.655 292.161L667.483 304.139Z" fill="url(#paint30_linear)"/>
<path d="M667.869 182.421C667.869 182.421 656.326 185.416 654.78 190.777C653.234 196.139 644.299 236.179 641.594 238.498C638.889 240.816 614.353 244.149 614.353 244.149C614.353 244.149 607.059 250.235 616.043 259.412C616.043 259.412 649.129 256.9 653.331 254.582C657.533 252.263 659.61 242.651 659.61 242.651C659.61 242.651 656.229 296.409 657.485 301.867C658.741 307.325 675.839 320.511 705.785 315.295L707.137 295.975L709.649 314.184C717.108 311.565 723.268 306.166 726.843 299.114L725.153 264.145C725.153 264.145 731.867 268.54 739.643 259.75C739.643 259.75 738.387 222.945 736.069 209.131C733.751 195.317 730.225 182.518 729.983 177.109C729.742 171.699 727.472 165.565 722.448 164.744C716.318 164.717 710.206 165.414 704.239 166.821L674.1 177.302L667.869 182.421Z" fill="url(#paint31_linear)"/>
<path d="M696.462 158.126C697.971 155.135 699.801 152.317 701.92 149.722C705.16 144.702 706.496 138.689 705.687 132.769C704.624 127.939 693.757 123.592 691.197 119.39C688.637 115.188 682.165 107.46 676.321 107.267C672.651 106.995 669.092 108.591 666.853 111.511C664.614 114.431 663.997 118.283 665.212 121.757C668.593 131.417 667.53 134.508 667.53 134.508L664.487 142.477L666.081 147.307L668.351 151.075L672.36 154.842L677.77 157.982L685.305 163.198C685.305 163.198 690.569 162.377 691.197 163.198C691.825 164.019 696.027 161.991 696.027 161.991L697.09 160.155L696.462 158.126Z" fill="url(#paint32_linear)"/>
<path d="M698.396 162.036L681.297 170.682C681.297 170.682 679.462 164.21 678.206 163.678C676.95 163.147 668.546 164.21 666.083 162.519C663.619 160.829 657.292 145.662 667.87 126.825C668.697 127.561 669.645 128.149 670.671 128.564C671.879 128.854 679.414 127.888 681.152 130.545C682.891 133.201 673.762 129.965 671.154 131.849C668.546 133.732 674.052 140.543 673.279 142.958C672.507 145.373 671.202 148.464 672.796 149.333C674.39 150.203 675.404 148.995 676.129 148.754C676.853 148.512 678.737 144.696 681.249 145.566C682.296 145.768 683.202 146.422 683.723 147.353C684.244 148.284 684.329 149.397 683.954 150.396C683.002 151.865 683.002 153.756 683.954 155.226C687.41 157.724 691.219 159.694 695.256 161.07C695.742 160.044 696.083 158.954 696.27 157.834L698.396 162.036Z" fill="url(#paint33_linear)"/>
<path d="M665.986 292.69C665.696 288.102 671.733 282.644 672.313 276.365C672.892 270.086 669.222 259.218 667.869 254.195C666.517 249.172 670.912 243.714 672.168 234.875C672.489 228.32 671.002 221.804 667.869 216.038L659.61 242.651C659.61 242.651 656.229 296.409 657.485 301.867C658.376 304.148 659.944 306.103 661.977 307.47C668.497 303.944 666.275 297.327 665.986 292.69Z" fill="url(#paint34_linear)"/>
<path d="M659.611 242.698L656.857 250.426C658.043 247.953 658.966 245.363 659.611 242.698Z" fill="url(#paint35_linear)"/>
<path d="M507.127 264.967C506.763 267.205 507.521 269.48 509.156 271.052C511.909 273.95 522.825 280.713 523.356 285.784C523.887 290.856 523.356 292.691 519.878 293.898C514.35 294.393 508.853 292.653 504.616 289.068C501.041 285.736 492.154 283.224 491.091 280.568C490.029 277.911 493.362 265.063 493.362 265.063L507.127 264.967Z" fill="url(#paint36_linear)"/>
<path d="M474.621 282.593C474.801 287.433 474.575 292.28 473.945 297.083C472.979 301.913 476.456 305.922 473.945 313.891C471.433 321.861 468.729 323.117 465.203 323.551C461.677 323.986 456.798 319.301 457.04 312.829C457.281 306.357 461.194 282.593 461.194 282.593H474.621Z" fill="url(#paint37_linear)"/>
<path d="M463.126 144.553C463.535 150.556 464.654 156.49 466.458 162.231C468.263 167.971 466.459 204.01 464.768 216.762C463.078 229.513 459.793 281.822 459.793 281.822C459.793 281.822 470.178 289.502 477.084 281.822C477.084 281.822 486.744 232.701 489.546 210.917C492.347 189.134 493.023 165.225 493.023 165.225L494.279 164.791C494.279 164.791 496.453 202.127 495.39 214.878C494.327 227.629 491.961 265.351 491.961 265.351C497.125 268.133 503.273 268.417 508.673 266.124C514.072 263.832 517.705 219.418 518.333 197.925C518.96 176.431 518.333 122.335 518.333 122.335C518.333 122.335 496.308 128.324 494.714 128.614C493.12 128.904 463.126 144.553 463.126 144.553Z" fill="url(#paint38_linear)"/>
<path d="M491.767 129.777C484.184 133.448 463.125 144.557 463.125 144.557C463.535 150.56 464.653 156.494 466.458 162.235C474.213 162.96 481.705 159.214 485.778 152.575C489.159 148.324 502.586 146.923 509.348 142.287C513.726 138.807 516.874 134.017 518.332 128.618L491.767 129.777Z" fill="url(#paint39_linear)"/>
<path d="M533.547 84.0345C533.547 84.0345 539.923 98.5246 540.647 99.1525C544.323 98.2018 547.886 96.8577 551.273 95.1435C554.661 93.4293 574.457 84.3726 577.259 85.4835C580.06 86.5944 580.785 89.2993 579.046 93.115C577.307 96.9307 547.651 114.56 536.155 114.27C524.66 113.981 518.043 92.5837 518.043 92.5837L533.547 84.0345Z" fill="url(#paint40_linear)"/>
<path d="M604.934 57.1285L603.05 55.9694L572.138 74.42H571.897L540.26 106.105L542.144 107.264L565.376 90.8902L567.163 89.3446L572.766 85.8671L583.199 75.6275L604.934 57.1285Z" fill="url(#paint41_linear)"/>
<path d="M515.096 47.1823C515.096 47.1823 519.926 48.0034 522.679 55.345C525.432 62.6866 534.078 82.9245 534.078 82.9245C530.713 89.75 523.282 93.5733 515.772 92.3427L512.729 73.0227V61.9621L515.096 47.1823Z" fill="url(#paint42_linear)"/>
<path d="M482.252 55.0543C482.252 55.0543 462.932 65.2938 458.44 71.9109C453.948 78.5281 443.95 95.1433 443.95 95.1433C443.95 95.1433 445.399 105.383 460.131 104.803L465.347 98.0411C465.347 98.0411 465.347 121.515 463.125 144.651C463.125 144.651 489.111 152.33 509.252 138.806C529.393 125.282 516.449 96.5922 517.511 91.8105C518.574 87.0288 522.824 57.6623 519.878 51.2867C516.932 44.9111 507.272 47.0363 507.272 47.0363L482.252 55.0543Z" fill="url(#paint43_linear)"/>
<path d="M491.729 70.6759C498.58 70.0234 503.736 65.3182 503.246 60.1665C502.755 55.0148 496.803 51.3674 489.952 52.0199C483.101 52.6723 477.945 57.3775 478.435 62.5292C478.926 67.681 484.878 71.3283 491.729 70.6759Z" fill="#4C68EF"/>
<path d="M481.915 47.0864C482.708 50.2575 482.708 53.5752 481.915 56.7464C480.466 62.0111 481.915 68.435 489.208 68.8214C493.492 69.7412 497.832 67.5209 499.592 63.5085C500.063 60.3866 500.063 57.2118 499.592 54.0899L489.208 46.1203L481.915 47.0864Z" fill="url(#paint44_linear)"/>
<path d="M509.252 26.3159C510.758 25.19 511.565 23.3572 511.377 21.4858C511.377 18.4429 510.314 18.1531 510.314 18.1531C510.314 18.1531 511.763 13.758 510.314 11.6811C509.411 10.3787 508.077 9.43746 506.547 9.02436C505.154 6.61995 503.26 4.5444 500.992 2.9388C499.125 2.23425 497.064 2.23425 495.196 2.9388C493.329 3.64335 490.366 -0.828686 488.241 0.137315C486.921 0.774552 485.714 1.62269 484.667 2.64872C483.62 3.67474 479.257 1.39295 478.146 4.19435L477.035 6.94749C477.035 6.94749 473.026 6.27141 471.771 8.87961C471.01 10.1242 470.801 11.6282 471.191 13.0333C471.582 14.4385 467.617 14.9654 468.003 17.3321C468.39 19.6988 469.259 20.2783 469.259 20.2783C469.259 20.2783 466.603 22.7417 467.037 23.9975C467.354 24.8176 467.888 25.5357 468.583 26.0744C469.278 26.6132 467.472 28.441 468.148 29.2621C468.681 29.8304 469.344 30.2613 470.08 30.5179C470.816 30.7745 468.824 33.5609 469.79 34.8167C470.473 35.5949 471.419 36.0936 472.447 36.2173C472.43 37.6764 472.926 39.0952 473.848 40.2263C474.662 41.441 476.234 41.89 477.567 41.2887L484.377 42.5929L489.207 40.0812L493.313 36.3623L495.583 34.5269L509.252 26.3159Z" fill="url(#paint45_linear)"/>
<path d="M507.079 23.2729C509.966 28.7924 511.128 35.0528 510.411 41.2407C510.073 54.0885 505.292 58.2423 498.82 58.677C491.075 59.5981 483.846 54.6409 481.915 47.0848C479.983 39.5288 476.601 45.3944 475.974 41.6752C475.346 37.9561 476.698 36.1207 478.389 35.9275C480.079 35.7343 482.446 40.2747 484.233 39.7434C486.02 39.2121 484.233 34.9134 484.233 34.9134C484.233 34.9134 486.068 34.0438 485.972 32.5465C485.875 31.0492 485.44 30.7594 485.44 30.7594C485.44 30.7594 488 30.4214 488.532 29.069C488.894 28.4268 488.753 27.6177 488.194 27.1369C489.839 27.2022 491.481 26.9396 493.024 26.3642C493.621 25.962 493.861 25.2009 493.603 24.5288C495.218 24.7774 496.868 24.6619 498.433 24.1907C499.834 23.3696 499.834 22.645 499.834 22.645C500.979 23.8974 502.869 24.1232 504.278 23.1762C505.095 23.8025 506.22 23.8414 507.079 23.2729Z" fill="url(#paint46_linear)"/>
<path d="M458.44 71.9123C453.9 78.5777 443.95 95.1446 443.95 95.1446C443.95 95.1446 445.399 105.384 460.131 104.805L465.347 98.0425C465.347 98.0425 469.356 80.0268 460.228 69.8838C459.565 70.4984 458.966 71.1779 458.44 71.9123Z" fill="url(#paint47_linear)"/>
<path d="M458.44 71.9106C454.431 77.8032 446.172 91.2305 444.337 94.5149C444.144 94.9786 444.144 95.5002 444.337 95.9639C445.061 98.3306 448.008 104.899 459.455 104.755C460.003 104.723 460.513 104.46 460.855 104.03L465.685 97.9443C465.685 97.9443 469.694 79.9283 460.566 69.7853C459.78 70.4123 459.067 71.1251 458.44 71.9106Z" fill="url(#paint48_linear)"/>
<path d="M473.317 139.774C475.442 139.387 477.229 137.649 475.829 136.055C474.428 134.461 472.254 136.393 468.922 133.929C463.01 128.417 457.832 122.167 453.514 115.334C452.258 112.146 458.634 104.756 458.634 104.756C448.684 104.756 445.4 99.3466 444.144 96.6901C444.144 96.6901 434.001 111.615 434.87 117.459C435.74 123.303 446.027 132.335 454.866 140.305C463.705 148.274 480.369 149.337 480.369 146.729C480.369 144.121 473.317 139.774 473.317 139.774Z" fill="url(#paint49_linear)"/>
<path d="M541.903 107.558L574.409 87.3204L604.693 57.4227L573.781 75.825L541.903 107.461V107.558Z" fill="url(#paint50_linear)"/>
<path d="M494.086 164.601L506.983 159.046C504.752 161.718 503.106 164.828 502.153 168.175C502.438 172.298 502.324 176.439 501.815 180.54C500.752 183.1 499.303 183.921 499.4 185.37C500.035 188.903 498.445 192.466 495.391 194.354L494.086 164.601Z" fill="url(#paint51_linear)"/>
<defs>
<linearGradient id="paint0_linear" x1="740.899" y1="138.085" x2="599.235" y2="138.085" gradientUnits="userSpaceOnUse">
<stop stop-color="#0E83AE"/>
<stop offset="0.98" stop-color="#003686"/>
</linearGradient>
<linearGradient id="paint1_linear" x1="740.899" y1="138.085" x2="599.235" y2="138.085" gradientUnits="userSpaceOnUse">
<stop stop-color="#7352FA"/>
<stop offset="1" stop-color="#A44BFE"/>
</linearGradient>
<linearGradient id="paint2_linear" x1="733.943" y1="141.174" x2="592.279" y2="141.174" gradientUnits="userSpaceOnUse">
<stop stop-color="#7352FA"/>
<stop offset="1" stop-color="#A44BFE"/>
</linearGradient>
<linearGradient id="paint3_linear" x1="656.133" y1="41.3391" x2="656.133" y2="247.773" gradientUnits="userSpaceOnUse">
<stop stop-color="#00366A"/>
<stop offset="0.33" stop-color="#003368"/>
<stop offset="0.57" stop-color="#012A62"/>
<stop offset="0.78" stop-color="#031A57"/>
<stop offset="0.97" stop-color="#050448"/>
<stop offset="1" stop-color="#050046"/>
</linearGradient>
<linearGradient id="paint4_linear" x1="697.042" y1="150.59" x2="662.314" y2="150.59" gradientUnits="userSpaceOnUse">
<stop stop-color="#7352FA"/>
<stop offset="1" stop-color="#A44BFE"/>
</linearGradient>
<linearGradient id="paint5_linear" x1="648.405" y1="117.508" x2="610.055" y2="117.508" gradientUnits="userSpaceOnUse">
<stop stop-color="#00366A"/>
<stop offset="0.33" stop-color="#003368"/>
<stop offset="0.57" stop-color="#012A62"/>
<stop offset="0.78" stop-color="#031A57"/>
<stop offset="0.97" stop-color="#050448"/>
<stop offset="1" stop-color="#050046"/>
</linearGradient>
<linearGradient id="paint6_linear" x1="638.165" y1="119.343" x2="603.437" y2="119.343" gradientUnits="userSpaceOnUse">
<stop stop-color="#7352FA"/>
<stop offset="1" stop-color="#A44BFE"/>
</linearGradient>
<linearGradient id="paint7_linear" x1="601.602" y1="120.647" x2="639.953" y2="120.647" gradientUnits="userSpaceOnUse">
<stop stop-color="#7352FA"/>
<stop offset="1" stop-color="#A44BFE"/>
</linearGradient>
<linearGradient id="paint8_linear" x1="620.825" y1="120.261" x2="639.952" y2="120.261" gradientUnits="userSpaceOnUse">
<stop offset="0.02" stop-color="white"/>
<stop offset="0.21" stop-color="#F4F9FF"/>
<stop offset="1" stop-color="#CAD8F3"/>
</linearGradient>
<linearGradient id="paint9_linear" x1="685.741" y1="176.19" x2="655.988" y2="176.19" gradientUnits="userSpaceOnUse">
<stop stop-color="#7352FA"/>
<stop offset="1" stop-color="#A44BFE"/>
</linearGradient>
<linearGradient id="paint10_linear" x1="676.322" y1="178.073" x2="655.988" y2="178.073" gradientUnits="userSpaceOnUse">
<stop stop-color="#7352FA"/>
<stop offset="1" stop-color="#A44BFE"/>
</linearGradient>
<linearGradient id="paint11_linear" x1="682.022" y1="185.175" x2="655.988" y2="185.175" gradientUnits="userSpaceOnUse">
<stop stop-color="#7352FA"/>
<stop offset="1" stop-color="#A44BFE"/>
</linearGradient>
<linearGradient id="paint12_linear" x1="685.741" y1="191.405" x2="655.988" y2="191.405" gradientUnits="userSpaceOnUse">
<stop stop-color="#7352FA"/>
<stop offset="1" stop-color="#A44BFE"/>
</linearGradient>
<linearGradient id="paint13_linear" x1="641.981" y1="160.783" x2="634.542" y2="160.783" gradientUnits="userSpaceOnUse">
<stop stop-color="#7352FA"/>
<stop offset="1" stop-color="#A44BFE"/>
</linearGradient>
<linearGradient id="paint14_linear" x1="633.045" y1="149.336" x2="603.292" y2="149.336" gradientUnits="userSpaceOnUse">
<stop stop-color="#7352FA"/>
<stop offset="1" stop-color="#A44BFE"/>
</linearGradient>
<linearGradient id="paint15_linear" x1="641.981" y1="163.002" x2="625.269" y2="163.002" gradientUnits="userSpaceOnUse">
<stop stop-color="#7352FA"/>
<stop offset="1" stop-color="#A44BFE"/>
</linearGradient>
<linearGradient id="paint16_linear" x1="623.626" y1="151.221" x2="603.292" y2="151.221" gradientUnits="userSpaceOnUse">
<stop stop-color="#7352FA"/>
<stop offset="1" stop-color="#A44BFE"/>
</linearGradient>
<linearGradient id="paint17_linear" x1="641.981" y1="169.814" x2="630.727" y2="169.814" gradientUnits="userSpaceOnUse">
<stop stop-color="#7352FA"/>
<stop offset="1" stop-color="#A44BFE"/>
</linearGradient>
<linearGradient id="paint18_linear" x1="629.326" y1="158.321" x2="603.292" y2="158.321" gradientUnits="userSpaceOnUse">
<stop stop-color="#7352FA"/>
<stop offset="1" stop-color="#A44BFE"/>
</linearGradient>
<linearGradient id="paint19_linear" x1="641.981" y1="176.042" x2="634.542" y2="176.042" gradientUnits="userSpaceOnUse">
<stop stop-color="#7352FA"/>
<stop offset="1" stop-color="#A44BFE"/>
</linearGradient>
<linearGradient id="paint20_linear" x1="633.045" y1="164.553" x2="603.292" y2="164.553" gradientUnits="userSpaceOnUse">
<stop stop-color="#7352FA"/>
<stop offset="1" stop-color="#A44BFE"/>
</linearGradient>
<linearGradient id="paint21_linear" x1="638.6" y1="162.861" x2="631.162" y2="162.861" gradientUnits="userSpaceOnUse">
<stop stop-color="#7352FA"/>
<stop offset="1" stop-color="#A44BFE"/>
</linearGradient>
<linearGradient id="paint22_linear" x1="638.6" y1="165.084" x2="621.888" y2="165.084" gradientUnits="userSpaceOnUse">
<stop stop-color="#7352FA"/>
<stop offset="1" stop-color="#A44BFE"/>
</linearGradient>
<linearGradient id="paint23_linear" x1="638.6" y1="171.842" x2="627.346" y2="171.842" gradientUnits="userSpaceOnUse">
<stop stop-color="#7352FA"/>
<stop offset="1" stop-color="#A44BFE"/>
</linearGradient>
<linearGradient id="paint24_linear" x1="638.6" y1="178.124" x2="631.162" y2="178.124" gradientUnits="userSpaceOnUse">
<stop stop-color="#7352FA"/>
<stop offset="1" stop-color="#A44BFE"/>
</linearGradient>
<linearGradient id="paint25_linear" x1="636.909" y1="81.6199" x2="618.555" y2="81.6199" gradientUnits="userSpaceOnUse">
<stop stop-color="#00366A"/>
<stop offset="0.33" stop-color="#003368"/>
<stop offset="0.57" stop-color="#012A62"/>
<stop offset="0.78" stop-color="#031A57"/>
<stop offset="0.97" stop-color="#050448"/>
<stop offset="1" stop-color="#050046"/>
</linearGradient>
<linearGradient id="paint26_linear" x1="635.026" y1="82.6809" x2="616.623" y2="82.6809" gradientUnits="userSpaceOnUse">
<stop stop-color="#7352FA"/>
<stop offset="1" stop-color="#A44BFE"/>
</linearGradient>
<linearGradient id="paint27_linear" x1="601.94" y1="266.512" x2="601.94" y2="243.666" gradientUnits="userSpaceOnUse">
<stop stop-color="#F9AFAF"/>
<stop offset="0.23" stop-color="#FBBABA"/>
<stop offset="0.61" stop-color="#FEC6C6"/>
<stop offset="1" stop-color="#FFCACA"/>
</linearGradient>
<linearGradient id="paint28_linear" x1="671.684" y1="434.932" x2="671.684" y2="413.39" gradientUnits="userSpaceOnUse">
<stop stop-color="#FFF52A"/>
<stop offset="0.51" stop-color="#FFF32A"/>
<stop offset="0.71" stop-color="#FFEC2C"/>
<stop offset="0.86" stop-color="#FFE02F"/>
<stop offset="0.98" stop-color="#FFCF32"/>
<stop offset="1" stop-color="#FFCB33"/>
</linearGradient>
<linearGradient id="paint29_linear" x1="698.303" y1="422.315" x2="698.303" y2="400.773" gradientUnits="userSpaceOnUse">
<stop stop-color="#FFF52A"/>
<stop offset="0.51" stop-color="#FFF32A"/>
<stop offset="0.71" stop-color="#FFEC2C"/>
<stop offset="0.86" stop-color="#FFE02F"/>
<stop offset="0.98" stop-color="#FFCF32"/>
<stop offset="1" stop-color="#FFCB33"/>
</linearGradient>
<linearGradient id="paint30_linear" x1="692.55" y1="422.378" x2="692.55" y2="284.046" gradientUnits="userSpaceOnUse">
<stop stop-color="#00265C"/>
<stop offset="0.55" stop-color="#00245B"/>
<stop offset="0.74" stop-color="#011D57"/>
<stop offset="0.88" stop-color="#031250"/>
<stop offset="1" stop-color="#050046"/>
</linearGradient>
<linearGradient id="paint31_linear" x1="675.452" y1="316.502" x2="675.452" y2="164.889" gradientUnits="userSpaceOnUse">
<stop stop-color="#FFF52A"/>
<stop offset="0.51" stop-color="#FFF32A"/>
<stop offset="0.71" stop-color="#FFEC2C"/>
<stop offset="0.86" stop-color="#FFE02F"/>
<stop offset="0.98" stop-color="#FFCF32"/>
<stop offset="1" stop-color="#FFCB33"/>
</linearGradient>
<linearGradient id="paint32_linear" x1="664.294" y1="135.377" x2="705.929" y2="135.377" gradientUnits="userSpaceOnUse">
<stop stop-color="#00265C"/>
<stop offset="0.55" stop-color="#00245B"/>
<stop offset="0.74" stop-color="#011D57"/>
<stop offset="0.88" stop-color="#031250"/>
<stop offset="1" stop-color="#050046"/>
</linearGradient>
<linearGradient id="paint33_linear" x1="661.977" y1="148.754" x2="698.396" y2="148.754" gradientUnits="userSpaceOnUse">
<stop stop-color="#F9AFAF"/>
<stop offset="0.23" stop-color="#FBBABA"/>
<stop offset="0.61" stop-color="#FEC6C6"/>
<stop offset="1" stop-color="#FFCACA"/>
</linearGradient>
<linearGradient id="paint34_linear" x1="664.826" y1="307.518" x2="664.826" y2="216.086" gradientUnits="userSpaceOnUse">
<stop stop-color="#FFF52A"/>
<stop offset="0.51" stop-color="#FFF32A"/>
<stop offset="0.71" stop-color="#FFEC2C"/>
<stop offset="0.86" stop-color="#FFE02F"/>
<stop offset="0.98" stop-color="#FFCF32"/>
<stop offset="1" stop-color="#FFCB33"/>
</linearGradient>
<linearGradient id="paint35_linear" x1="658.21" y1="250.426" x2="658.21" y2="242.698" gradientUnits="userSpaceOnUse">
<stop stop-color="#7A6AFE"/>
<stop offset="0.48" stop-color="#7869FD"/>
<stop offset="0.68" stop-color="#7165F8"/>
<stop offset="0.84" stop-color="#645EF0"/>
<stop offset="0.96" stop-color="#5354E5"/>
<stop offset="1" stop-color="#4C50E1"/>
</linearGradient>
<linearGradient id="paint36_linear" x1="507.224" y1="294.188" x2="507.224" y2="264.967" gradientUnits="userSpaceOnUse">
<stop stop-color="#7352FA"/>
<stop offset="1" stop-color="#A44BFE"/>
</linearGradient>
<linearGradient id="paint37_linear" x1="465.975" y1="323.213" x2="465.975" y2="282.255" gradientUnits="userSpaceOnUse">
<stop stop-color="#7352FA"/>
<stop offset="1" stop-color="#A44BFE"/>
</linearGradient>
<linearGradient id="paint38_linear" x1="488.966" y1="285.203" x2="488.966" y2="122.335" gradientUnits="userSpaceOnUse">
<stop stop-color="#CDDAF4"/>
<stop offset="0.13" stop-color="#DAE4F8"/>
<stop offset="0.38" stop-color="#EDF3FD"/>
<stop offset="0.56" stop-color="#F4F9FF"/>
<stop offset="0.72" stop-color="#F1F7FE"/>
<stop offset="0.84" stop-color="#E8F0FC"/>
<stop offset="0.93" stop-color="#D9E4F7"/>
<stop offset="1" stop-color="#CAD8F3"/>
</linearGradient>
<linearGradient id="paint39_linear" x1="490.608" y1="162.331" x2="490.608" y2="128.376" gradientUnits="userSpaceOnUse">
<stop stop-color="#CDDAF4"/>
<stop offset="0.13" stop-color="#DAE4F8"/>
<stop offset="0.38" stop-color="#EDF3FD"/>
<stop offset="0.56" stop-color="#F4F9FF"/>
<stop offset="0.72" stop-color="#F1F7FE"/>
<stop offset="0.84" stop-color="#E8F0FC"/>
<stop offset="0.93" stop-color="#D9E4F7"/>
<stop offset="1" stop-color="#CAD8F3"/>
</linearGradient>
<linearGradient id="paint40_linear" x1="549.003" y1="114.126" x2="549.003" y2="84.0345" gradientUnits="userSpaceOnUse">
<stop stop-color="#FF8888"/>
<stop offset="0.11" stop-color="#FE9393"/>
<stop offset="0.32" stop-color="#FDA1A1"/>
<stop offset="0.58" stop-color="#FCA9A9"/>
<stop offset="1" stop-color="#FCACAC"/>
</linearGradient>
<linearGradient id="paint41_linear" x1="572.525" y1="107.554" x2="572.525" y2="55.9694" gradientUnits="userSpaceOnUse">
<stop stop-color="#00265C"/>
<stop offset="0.13" stop-color="#021753"/>
<stop offset="0.31" stop-color="#040A4C"/>
<stop offset="0.54" stop-color="#050247"/>
<stop offset="1" stop-color="#050046"/>
</linearGradient>
<linearGradient id="paint42_linear" x1="523.404" y1="92.4393" x2="523.404" y2="47.1823" gradientUnits="userSpaceOnUse">
<stop stop-color="#4C68EF"/>
<stop offset="1" stop-color="#869BFF"/>
</linearGradient>
<linearGradient id="paint43_linear" x1="482.445" y1="146.728" x2="482.445" y2="46.6016" gradientUnits="userSpaceOnUse">
<stop stop-color="#4C68EF"/>
<stop offset="1" stop-color="#758DFF"/>
</linearGradient>
<linearGradient id="paint44_linear" x1="490.705" y1="68.6282" x2="490.705" y2="45.8788" gradientUnits="userSpaceOnUse">
<stop stop-color="#FF8888"/>
<stop offset="0.11" stop-color="#FE9393"/>
<stop offset="0.32" stop-color="#FDA1A1"/>
<stop offset="0.58" stop-color="#FCA9A9"/>
<stop offset="1" stop-color="#FCACAC"/>
</linearGradient>
<linearGradient id="paint45_linear" x1="489.207" y1="42.8344" x2="489.207" y2="0.233915" gradientUnits="userSpaceOnUse">
<stop stop-color="#00265C"/>
<stop offset="0.55" stop-color="#00245B"/>
<stop offset="0.74" stop-color="#011D57"/>
<stop offset="0.88" stop-color="#031250"/>
<stop offset="1" stop-color="#050046"/>
</linearGradient>
<linearGradient id="paint46_linear" x1="493.12" y1="58.7253" x2="493.12" y2="22.645" gradientUnits="userSpaceOnUse">
<stop stop-color="#FF8888"/>
<stop offset="0.11" stop-color="#FE9393"/>
<stop offset="0.32" stop-color="#FDA1A1"/>
<stop offset="0.58" stop-color="#FCA9A9"/>
<stop offset="1" stop-color="#FCACAC"/>
</linearGradient>
<linearGradient id="paint47_linear" x1="455.108" y1="104.756" x2="455.108" y2="69.7872" gradientUnits="userSpaceOnUse">
<stop stop-color="#7CDAA3"/>
<stop offset="0.03" stop-color="#79D8A3"/>
<stop offset="0.43" stop-color="#5BBE9E"/>
<stop offset="0.76" stop-color="#48AE9B"/>
<stop offset="1" stop-color="#41A89A"/>
</linearGradient>
<linearGradient id="paint48_linear" x1="455.156" y1="104.755" x2="455.156" y2="69.7853" gradientUnits="userSpaceOnUse">
<stop stop-color="#4C68EF"/>
<stop offset="1" stop-color="#8398FF"/>
</linearGradient>
<linearGradient id="paint49_linear" x1="457.813" y1="147.985" x2="457.813" y2="96.6901" gradientUnits="userSpaceOnUse">
<stop stop-color="#FF8888"/>
<stop offset="0.11" stop-color="#FE9393"/>
<stop offset="0.32" stop-color="#FDA1A1"/>
<stop offset="0.58" stop-color="#FCA9A9"/>
<stop offset="1" stop-color="#FCACAC"/>
</linearGradient>
<linearGradient id="paint50_linear" x1="573.443" y1="107.558" x2="573.443" y2="57.0846" gradientUnits="userSpaceOnUse">
<stop stop-color="#00265C"/>
<stop offset="0.55" stop-color="#00245B"/>
<stop offset="0.74" stop-color="#011D57"/>
<stop offset="0.88" stop-color="#031250"/>
<stop offset="1" stop-color="#050046"/>
</linearGradient>
<linearGradient id="paint51_linear" x1="500.51" y1="194.74" x2="500.51" y2="159.239" gradientUnits="userSpaceOnUse">
<stop stop-color="#CDDAF4"/>
<stop offset="0.13" stop-color="#DAE4F8"/>
<stop offset="0.38" stop-color="#EDF3FD"/>
<stop offset="0.56" stop-color="#F4F9FF"/>
<stop offset="0.72" stop-color="#F1F7FE"/>
<stop offset="0.84" stop-color="#E8F0FC"/>
<stop offset="0.93" stop-color="#D9E4F7"/>
<stop offset="1" stop-color="#CAD8F3"/>
</linearGradient>
</defs>
</svg>
