<svg width="294" height="278" viewBox="0 0 294 278" fill="none" xmlns="http://www.w3.org/2000/svg">
<path opacity="0.21" d="M140.007 65.9863L293.207 199.386L183.807 277.486L101.507 84.5863L140.007 65.9863Z" fill="url(#paint0_linear)"/>
<path d="M106.207 18.1863C106.207 18.2863 106.207 18.3863 106.307 18.4863C106.407 18.5863 106.307 18.6863 106.307 18.7863C106.307 19.3863 106.407 20.0863 106.507 20.6863C106.507 20.7863 106.507 20.7863 106.507 20.8863C106.507 20.9863 106.607 21.1863 106.607 21.2863C106.707 21.6863 106.707 22.0863 106.807 22.4863L107.007 23.1863C107.107 23.5863 107.207 23.9863 107.307 24.2863C107.307 24.3863 107.407 24.5863 107.407 24.6863C107.407 24.7863 107.507 25.0863 107.607 25.2863L113.107 41.2863C113.007 40.9863 112.907 40.6863 112.807 40.2863C112.707 39.8863 112.607 39.4863 112.507 39.1863L112.307 38.4863C112.207 38.0863 112.107 37.6863 112.107 37.2863L112.007 36.6863C111.907 36.0863 111.807 35.4863 111.807 34.7863C111.807 34.6863 111.807 34.5863 111.807 34.4863C111.807 34.4863 111.807 34.4863 111.807 34.3863C111.807 34.2863 111.807 34.1863 111.707 34.0863C111.607 33.9863 111.707 33.9863 111.707 33.9863C111.707 33.9863 111.707 33.9863 111.707 33.8863L106.207 17.8863C106.207 18.0863 106.207 18.1863 106.207 18.1863Z" fill="#8B99F9"/>
<path d="M88.3071 23.7863L93.8071 39.7863C93.9071 40.0863 94.1071 40.3863 94.2071 40.5863C95.4071 42.0863 96.4071 43.7863 97.2071 45.5863C97.5071 46.1863 97.7071 46.7863 97.9071 47.3863L92.4071 31.3863C91.6071 28.9863 90.3071 26.6863 88.7071 24.5863C88.6071 24.3863 88.5071 24.0863 88.3071 23.7863Z" fill="#8B99F9"/>
<path d="M208.607 37.9863C208.607 38.0863 208.607 38.1863 208.707 38.2863C208.707 38.3863 208.707 38.4863 208.707 38.4863C208.707 38.5863 208.707 38.6863 208.707 38.7863C208.707 38.8863 208.707 38.9863 208.707 38.9863C208.707 39.0863 208.707 39.1863 208.707 39.2863C208.707 39.3863 208.707 39.3863 208.607 39.4863C208.607 39.5863 208.507 39.6863 208.507 39.8863C208.507 40.0863 208.407 39.9863 208.407 40.0863C208.307 40.2863 208.307 40.3863 208.207 40.5863C208.207 40.6863 208.107 40.6863 208.107 40.7863C208.107 40.8863 208.007 40.9863 207.907 41.0863C207.807 41.1863 207.807 41.2863 207.707 41.3863L207.507 41.6863C207.407 41.7863 207.307 41.8863 207.307 41.9863L207.007 42.2863C206.807 42.5863 206.507 42.7863 206.307 42.9863L206.007 43.1863L205.407 43.6863L205.207 43.8863C204.807 44.1863 204.407 44.4863 203.907 44.6863L203.607 44.8863L202.907 45.1863L202.207 45.4863L201.907 45.5863C201.607 45.6863 201.307 45.7863 201.007 45.8863L200.807 45.9863C200.507 46.0863 200.207 46.1863 199.907 46.1863C198.907 46.3863 197.907 46.6863 196.907 46.8863L196.307 47.0863L195.007 47.3863C194.207 47.5863 193.407 47.7863 192.607 48.0863L191.307 48.4863L190.407 48.7863L189.007 49.2863L187.607 49.7863C186.807 50.0863 185.907 50.3863 185.107 50.6863L184.007 51.0863L183.707 51.1863C182.907 51.4863 182.207 51.7863 181.507 52.0863L180.307 52.5863C179.107 53.0863 177.907 53.5863 176.707 54.1863C175.407 54.7863 174.107 55.3863 172.907 56.0863C172.507 56.2863 172.107 56.4863 171.707 56.6863C170.807 57.1863 170.007 57.5863 169.207 58.0863L168.907 58.2863C168.107 58.7863 167.307 59.1863 166.507 59.6863L166.107 59.8863C165.107 60.4863 164.007 61.1863 163.007 61.8863L162.107 62.4863C161.407 62.9863 160.707 63.4863 160.007 63.9863L158.907 64.7863L157.907 65.5863L157.307 66.0863L155.407 67.5863L154.107 68.6863C153.507 69.1863 152.907 69.7863 152.307 70.2863C151.907 70.5863 151.507 70.9863 151.107 71.3863C150.507 71.9863 149.807 72.5863 149.207 73.1863C148.907 73.4863 148.607 73.7863 148.307 74.0863C147.407 74.9863 146.507 75.9863 145.707 76.8863L145.007 77.6863L144.507 78.3863C144.207 78.7863 143.907 79.1863 143.607 79.4863L142.807 80.4863C142.507 80.8863 142.207 81.2863 142.007 81.5863L141.307 82.6863C141.107 83.0863 140.807 83.4863 140.607 83.7863C140.407 84.0863 140.207 84.4863 140.007 84.8863C139.807 85.2863 139.607 85.6863 139.407 85.9863C139.307 86.1863 139.207 86.2863 139.107 86.4863C139.007 86.6863 138.807 87.0863 138.607 87.3863L138.407 87.7863C138.107 88.3863 137.807 88.9863 137.507 89.6863L137.307 90.0863C137.107 90.5863 136.907 91.1863 136.707 91.6863L136.607 92.0863L136.507 92.2863C136.407 92.4863 136.407 92.6863 136.307 92.8863C136.107 93.3863 136.007 93.8863 135.807 94.3863C135.707 94.6863 135.707 94.9863 135.607 95.2863C135.507 95.7863 135.407 96.1863 135.307 96.6863L135.207 97.0863C135.207 97.2863 135.207 97.4863 135.107 97.6863C135.007 98.0863 135.007 98.4863 134.907 98.7863C134.807 99.0863 134.807 99.3863 134.807 99.7863C134.807 100.186 134.707 100.586 134.707 100.886C134.707 101.086 134.707 101.186 134.707 101.386C134.707 101.586 134.707 101.686 134.707 101.786C134.707 102.086 134.707 102.486 134.707 102.786C134.707 103.086 134.707 103.386 134.807 103.686C134.907 103.986 134.907 104.386 134.907 104.686C134.907 104.886 134.907 105.086 134.907 105.286C134.907 105.486 135.007 105.486 135.007 105.686C135.007 105.986 135.107 106.386 135.207 106.686C135.307 106.986 135.307 107.286 135.407 107.586C135.507 107.886 135.607 108.286 135.707 108.586C135.807 108.886 135.807 108.986 135.807 109.186L136.007 109.786L139.807 120.486C139.707 120.586 139.707 120.686 139.607 120.786L139.407 121.086L139.207 121.386C139.107 121.486 139.107 121.586 139.007 121.686C138.707 122.086 138.407 122.386 138.007 122.686L137.707 122.886C137.507 123.086 137.207 123.186 137.007 123.386C136.807 123.586 136.507 123.686 136.207 123.886C135.907 124.086 135.607 124.286 135.207 124.386C135.107 124.386 135.007 124.486 135.007 124.486C134.507 124.686 134.107 124.886 133.607 125.086L133.407 125.186C132.907 125.386 132.507 125.486 132.007 125.586L131.807 125.686C131.307 125.786 130.807 125.886 130.407 125.886H130.107C129.707 125.886 129.207 125.886 128.807 125.886C128.707 125.886 128.607 125.886 128.607 125.886C128.107 125.886 127.607 125.786 127.107 125.686L126.307 125.486C125.607 125.386 124.907 125.186 124.307 124.786L121.107 115.586C117.807 105.886 108.107 98.4863 92.8069 95.5863C91.8069 95.3863 90.7069 95.1863 89.6069 95.0863L88.6069 94.9863C87.8069 94.8863 87.0069 94.7863 86.2069 94.6863L85.2069 94.5863C84.2069 94.4863 83.2069 94.4863 82.2069 94.3863H81.8069H81.2069C80.1069 94.3863 78.9069 94.2863 77.8069 94.2863H76.4069C75.5069 94.2863 74.6069 94.2863 73.7069 94.3863C73.5069 94.3863 73.3069 94.3863 73.1069 94.3863C72.6069 94.3863 72.2069 94.4863 71.7069 94.4863L70.0069 94.5863C69.3069 94.6863 68.6069 94.6863 67.9069 94.7863L66.2069 94.9863C66.0069 94.9863 65.9069 94.9863 65.7069 95.0863C65.0069 95.1863 64.4069 95.2863 63.7069 95.3863L62.6069 95.5863C61.4069 95.7863 60.2069 95.9863 59.0069 96.2863L58.8069 95.9863C57.7069 96.1863 56.6069 96.4863 55.5069 96.6863L54.3069 96.9863C53.7069 97.0863 53.2069 97.2863 52.6069 97.3863L51.9069 97.5863L50.5069 97.9863C49.7069 98.1863 49.0069 98.3863 48.2069 98.6863L46.9069 99.0863L46.1069 99.2863L44.6069 99.7863L43.3069 100.286C42.5069 100.586 41.6069 100.886 40.8069 101.186L39.8069 101.586L39.6069 101.686C38.8069 101.986 38.1069 102.286 37.3069 102.586L36.2069 103.086C35.0069 103.586 33.8069 104.086 32.7069 104.686C32.4069 104.786 32.1069 104.986 31.8069 105.086L31.6069 105.186L30.9069 105.386L30.6069 105.486C30.4069 105.586 30.2069 105.586 30.0069 105.686L29.7069 105.786L29.1069 105.886L28.7069 105.986L28.2069 106.086H27.7069H27.4069C27.2069 106.086 26.9069 106.086 26.7069 106.086H26.4069C26.0069 106.086 25.5069 105.986 25.1069 105.986L24.3069 105.786C22.3069 105.386 21.0069 104.386 20.6069 103.186L26.1069 119.186C26.5069 120.486 27.8069 121.386 29.8069 121.786L30.6069 121.986C31.0069 122.086 31.5069 122.086 31.9069 122.086H32.0069H32.2069C32.4069 122.086 32.7069 122.086 32.9069 122.086H33.0069H33.5069H33.9069H34.0069L34.3069 121.986L34.7069 121.886H34.9069L35.2069 121.786L35.5069 121.686L35.8069 121.586L36.1069 121.486H36.3069L36.8069 121.286L37.0069 121.186H37.1069L38.0069 120.786C39.2069 120.286 40.4069 119.686 41.6069 119.186L42.7069 118.686L45.2069 117.686L46.2069 117.286C47.0069 116.986 47.9069 116.686 48.7069 116.386L50.0069 115.886L52.3069 115.186L53.6069 114.786L55.9069 114.086L57.2069 113.686C58.0069 113.486 58.8069 113.286 59.6069 113.086L60.8069 112.786C61.9069 112.486 63.0069 112.286 64.1069 112.086L64.4069 111.986C65.6069 111.786 66.8069 111.586 68.1069 111.286L69.2069 111.086L71.7069 110.786L73.4069 110.586C74.1069 110.486 74.8069 110.386 75.5069 110.386L77.2069 110.286C77.9069 110.286 78.5069 110.186 79.1069 110.186C80.0069 110.186 80.9069 110.086 81.8069 110.086H83.2069C84.3069 110.086 85.5069 110.086 86.6069 110.186H87.3069H87.6069C88.6069 110.186 89.6069 110.286 90.6069 110.386L91.6069 110.486C92.4069 110.586 93.2069 110.686 94.0069 110.786L95.0069 110.886C96.1069 111.086 97.1069 111.186 98.2069 111.386C110.007 113.686 118.507 118.586 123.307 125.286L127.907 138.786C128.307 140.086 129.707 140.986 131.607 141.386L132.407 141.486C132.907 141.586 133.307 141.586 133.807 141.686H134.107C134.407 141.686 134.707 141.686 134.907 141.686C135.107 141.686 135.207 141.686 135.407 141.686H135.707H135.907C136.207 141.686 136.507 141.586 136.807 141.586L137.107 141.486L137.307 141.386L137.607 141.286C137.907 141.186 138.207 141.186 138.507 141.086L138.807 140.986L139.007 140.886L139.407 140.786C139.707 140.686 140.007 140.586 140.307 140.386H140.407L140.607 140.286L141.307 139.886C141.407 139.786 141.507 139.786 141.607 139.686C141.907 139.486 142.107 139.386 142.407 139.186C142.707 138.986 142.707 138.986 142.807 138.886C142.907 138.786 143.007 138.686 143.107 138.686L143.407 138.486C143.807 138.186 144.107 137.886 144.407 137.486L144.507 137.386C144.607 137.286 144.607 137.286 144.607 137.186L144.807 136.886L145.007 136.586L145.207 136.286C145.207 136.286 145.207 136.186 145.307 136.186L145.407 136.086C145.507 135.886 145.607 135.686 145.607 135.586V135.486V135.386C145.607 135.286 145.707 135.186 145.707 134.986V134.786C145.707 134.686 145.707 134.586 145.707 134.486C145.707 134.386 145.707 134.386 145.707 134.286C145.707 134.186 145.707 134.086 145.707 134.086C145.707 133.986 145.707 133.986 145.707 133.886C145.707 133.786 145.707 133.686 145.707 133.686C145.707 133.586 145.707 133.586 145.607 133.486C145.507 133.386 145.607 133.386 145.607 133.386L140.207 117.786C140.207 117.486 140.207 117.186 140.207 116.886C140.207 116.586 140.207 116.186 140.307 115.786C140.407 115.386 140.407 115.186 140.407 114.786C140.407 114.386 140.507 113.986 140.607 113.686C140.707 113.386 140.707 113.086 140.807 112.786C140.907 112.486 141.007 111.886 141.107 111.386C141.207 111.086 141.207 110.786 141.307 110.486C141.407 109.986 141.607 109.486 141.807 108.986C141.907 108.686 142.007 108.486 142.007 108.186L142.107 107.786C142.307 107.286 142.507 106.686 142.707 106.186L142.907 105.786C143.207 105.186 143.507 104.586 143.807 103.886L144.007 103.486C144.207 102.986 144.507 102.586 144.707 102.086C144.907 101.586 145.107 101.286 145.307 100.986C145.507 100.686 145.707 100.286 145.907 99.8863C146.107 99.4863 146.407 99.0863 146.607 98.7863L147.307 97.6863L148.107 96.5863L148.907 95.4863C149.207 95.0863 149.507 94.6863 149.807 94.3863C150.107 94.0863 150.607 93.3863 151.007 92.8863C151.807 91.8863 152.707 90.9863 153.607 90.0863C153.907 89.7863 154.207 89.4863 154.507 89.1863C155.107 88.5863 155.707 87.9863 156.407 87.3863C156.807 87.0863 157.207 86.6863 157.607 86.3863C158.207 85.8863 158.807 85.2863 159.407 84.7863L160.707 83.6863L162.607 81.8863L164.207 80.6863L165.307 79.8863L167.407 78.4863L168.307 77.8863C169.307 77.1863 170.307 76.5863 171.407 75.8863L171.807 75.6863C172.707 75.1863 173.607 74.5863 174.507 74.0863C175.407 73.5863 176.207 73.1863 177.007 72.6863C177.407 72.4863 177.807 72.2863 178.207 72.0863C179.507 71.4863 180.707 70.7863 182.007 70.1863C183.307 69.5863 184.407 69.0863 185.607 68.5863L186.807 68.0863L189.307 67.0863L190.407 66.6863C191.207 66.3863 192.007 66.0863 192.907 65.7863L194.307 65.3863C195.107 65.0863 195.807 64.8863 196.607 64.5863L197.907 64.1863C198.707 63.9863 199.507 63.6863 200.307 63.4863L201.607 63.1863C202.807 62.8863 204.007 62.5863 205.107 62.2863L205.507 62.1863L206.007 61.9863L206.207 61.8863H206.307L207.107 61.5863L207.307 61.4863L207.907 61.1863H208.007C208.207 61.0863 208.507 60.9863 208.707 60.7863L208.907 60.6863C209.307 60.3863 209.807 60.1863 210.207 59.8863L210.307 59.7863L210.407 59.6863C210.607 59.4863 210.807 59.3863 211.007 59.1863L211.207 58.9863C211.407 58.7863 211.707 58.4863 211.907 58.2863L212.207 57.9863L212.307 57.8863C212.407 57.7863 212.407 57.6863 212.507 57.6863L212.707 57.3863L212.907 57.0863C213.007 56.9863 213.007 56.8863 213.107 56.7863V56.6863C213.107 56.6863 213.107 56.5863 213.207 56.5863C213.307 56.3863 213.407 56.2863 213.407 56.0863C213.407 55.8863 213.407 55.9863 213.507 55.9863V55.8863C213.507 55.7863 213.607 55.6863 213.607 55.4863C213.607 55.4863 213.607 55.3863 213.607 55.2863V55.1863C213.607 55.0863 213.607 54.9863 213.607 54.8863C213.607 54.7863 213.607 54.7863 213.607 54.6863V54.5863C213.607 54.4863 213.607 54.3863 213.607 54.2863C213.607 54.1863 213.607 54.1863 213.607 54.0863C213.607 53.9863 213.607 53.8863 213.507 53.7863C213.507 53.6863 213.507 53.6863 213.507 53.5863V53.4863L208.007 37.4863C208.507 37.7863 208.507 37.8863 208.607 37.9863ZM140.607 118.086C140.607 118.186 140.607 118.186 140.607 118.286C140.607 118.086 140.607 117.886 140.607 117.786V117.886C140.607 117.886 140.607 117.886 140.607 118.086Z" fill="url(#paint1_linear)"/>
<path d="M204.807 35.0863C208.807 35.8863 209.907 38.9863 207.207 41.9863L206.907 42.2863C205.007 44.2863 202.607 45.6863 199.907 46.2863C178.807 51.0863 158.307 62.0863 145.807 76.5863C133.307 91.0863 131.807 105.786 139.807 116.086C140.907 117.486 140.507 119.386 139.007 121.186C135.907 124.386 131.407 125.986 127.007 125.386L126.207 125.186C123.907 124.786 122.407 123.486 122.307 121.786C121.607 109.086 111.307 98.7863 92.7069 95.2863C74.1069 91.7863 51.6069 95.6863 32.3069 104.586C29.9069 105.786 27.2069 106.186 24.5069 105.786L23.7069 105.586C19.7069 104.786 18.6069 101.686 21.2069 98.6863L21.5069 98.3863C23.4069 96.3863 25.8069 94.9863 28.5069 94.3863C49.6069 89.5863 70.1069 78.5863 82.6069 64.0863C95.1069 49.5863 96.6069 34.8863 88.6069 24.5863C87.6069 23.1863 87.9069 21.2863 89.4069 19.4863C92.5069 16.2863 97.0069 14.6863 101.407 15.2863L102.207 15.4863C104.507 15.8863 106.007 17.1863 106.107 18.8863C106.807 31.5863 117.107 41.8863 135.707 45.3863C154.307 48.8863 176.807 44.9863 196.107 36.0863C198.507 34.9863 201.207 34.4863 203.907 34.8863L204.807 35.0863Z" fill="url(#paint2_linear)"/>
<path d="M42.8072 81.7863C42.1072 81.6863 41.4072 81.5863 40.7072 81.4863C40.5072 81.4863 40.2072 81.4863 40.0072 81.3863C39.6072 81.3863 39.2072 81.2863 38.7072 81.2863H38.0072C37.4072 81.2863 36.9072 81.2863 36.3072 81.2863H35.7072H35.3072C35.1072 81.2863 34.8072 81.2863 34.6072 81.3863C34.1072 81.3863 33.5072 81.4863 32.9072 81.5863H32.5072L31.9072 81.6863C31.4072 81.7863 31.0072 81.7863 30.5072 81.8863L30.0072 81.9863L29.4072 82.0863L28.1072 82.3863L27.5072 82.4863L26.9072 82.6863L25.6072 83.0863C25.4072 83.1863 25.2072 83.1863 25.0072 83.2863L24.5072 83.4863C24.0072 83.6863 23.6072 83.7863 23.1072 83.9863L22.4072 84.1863L22.0072 84.3863C21.5072 84.5863 20.9072 84.7863 20.4072 85.0863L19.8072 85.3863L19.5072 85.4863L19.0072 85.6863C18.5072 85.9863 17.9072 86.1863 17.4072 86.4863L17.0072 86.6863L16.8072 86.7863C16.6072 86.8863 16.3072 87.0863 16.1072 87.1863C15.7072 87.3863 15.3072 87.6863 14.9072 87.9863C14.5072 88.2863 14.3072 88.3863 14.0072 88.5863C13.7072 88.7863 13.2072 89.0863 12.9072 89.3863L12.7072 89.5863C12.3072 89.8863 11.8072 90.2863 11.4072 90.5863C11.3072 90.5863 11.3072 90.6863 11.2072 90.7863C10.7072 91.1863 10.3072 91.5863 9.90723 91.9863C9.80723 92.0863 9.70723 92.1863 9.50723 92.3863C9.00723 92.8863 8.60723 93.3863 8.10723 93.7863L7.90723 93.9863C7.60723 94.3863 7.20723 94.7863 6.90723 95.1863L6.70723 95.3863C6.40723 95.8863 6.10723 96.3863 5.80723 96.7863L5.70723 96.9863C5.70723 97.0863 5.60723 97.1863 5.50723 97.2863C5.30723 97.6863 5.10723 98.1863 4.90723 98.5863C4.90723 98.6863 4.80723 98.7863 4.80723 98.7863C4.70723 98.9863 4.60723 99.2863 4.50723 99.4863C4.40723 99.6863 4.40723 99.8863 4.30723 100.086L4.20723 100.286C4.10723 100.586 4.00723 100.986 4.00723 101.286C4.00723 101.386 4.00723 101.486 4.00723 101.586V101.786C3.90723 102.186 3.90723 102.486 3.90723 102.886C3.90723 103.386 3.90723 103.886 4.00723 104.386C4.00723 104.686 4.10723 104.986 4.20723 105.286C4.20723 105.386 4.20723 105.386 4.20723 105.486C4.20723 105.586 4.30723 105.786 4.30723 105.886L4.40723 106.086C4.40723 106.086 4.40723 106.086 4.40723 106.186L5.80723 110.186C5.70723 109.886 5.60723 109.486 5.50723 109.186V109.086C5.40723 108.786 5.40723 108.486 5.40723 108.186V108.086C5.30723 107.386 5.30723 106.686 5.40723 105.986C5.40723 105.886 5.40723 105.886 5.40723 105.786C5.50723 105.286 5.60723 104.886 5.70723 104.386L5.80723 104.186C5.90723 103.786 6.10723 103.386 6.20723 102.886C6.20723 102.786 6.30723 102.686 6.30723 102.686C6.50723 102.186 6.70723 101.686 7.00723 101.286L7.10723 101.086C7.40723 100.586 7.70723 100.086 8.00723 99.6863L8.10723 99.4863C8.50723 98.9863 8.90723 98.4863 9.30723 97.9863C9.70723 97.4863 10.2072 96.9863 10.7072 96.5863L11.1072 96.1863C11.5072 95.7863 12.0072 95.3863 12.4072 94.9863L12.6072 94.7863C13.1072 94.3863 13.6072 93.9863 14.2072 93.5863C14.6072 93.2863 15.0072 93.0863 15.3072 92.7863C15.6072 92.4863 15.9072 92.3863 16.2072 92.1863C16.5072 91.9863 17.0072 91.6863 17.4072 91.3863C17.8072 91.0863 18.0072 90.9863 18.3072 90.8863L18.7072 90.6863C19.2072 90.3863 19.8072 90.0863 20.3072 89.8863L20.8072 89.6863L21.8072 89.2863C22.3072 89.0863 22.9072 88.7863 23.4072 88.5863L24.4072 88.1863L25.7072 87.6863L26.8072 87.2863C27.2072 87.1863 27.6072 87.0863 28.1072 86.8863C28.6072 86.6863 28.9072 86.6863 29.3072 86.5863C29.7072 86.4863 30.2072 86.3863 30.6072 86.2863L31.9072 86.0863L33.3072 85.8863L34.4072 85.6863C34.9072 85.5863 35.5072 85.5863 36.1072 85.4863C36.5072 85.4863 36.8072 85.3863 37.2072 85.3863H37.8072C38.4072 85.3863 38.9072 85.3863 39.5072 85.3863H40.0072C40.5072 85.3863 41.0072 85.4863 41.5072 85.4863H42.0072C42.7072 85.5863 43.4072 85.6863 44.1072 85.7863C49.9072 86.8863 53.6072 89.6863 54.8072 93.3863L53.4072 89.3863C52.2072 85.6863 48.5072 82.8863 42.8072 81.7863Z" fill="#4C68EF"/>
<path opacity="0.25" d="M43.8074 83.0863C55.7074 85.3863 58.9074 94.5863 51.1074 103.686C43.3074 112.786 27.3074 118.386 15.4074 116.086C3.50743 113.786 0.307435 104.586 8.10743 95.4863C15.9074 86.3863 31.9074 80.8863 43.8074 83.0863Z" fill="url(#paint3_linear)"/>
<path d="M48.7074 90.5863C48.8074 90.8863 48.3074 91.3863 47.7074 91.5863C47.5074 91.6863 47.2074 91.6863 47.0074 91.6863C46.8074 91.6863 46.6074 91.4863 46.5074 91.2863C46.0074 88.9863 43.9074 87.2863 40.7074 86.6863C37.0074 86.0863 33.2074 86.5863 29.7074 88.0863C29.4074 88.1863 29.1074 88.2863 28.8074 88.1863C28.6074 88.1863 28.4074 88.0863 28.3074 87.8863C28.1074 87.5863 28.5074 87.0863 29.1074 86.8863C33.2074 85.0863 37.6074 84.5863 42.0074 85.1863C45.8074 85.8863 48.2074 87.7863 48.7074 90.5863Z" fill="#4C68EF"/>
<path d="M37.1075 90.7863C38.7075 91.0863 39.8075 91.9863 40.0075 93.0863C40.1075 93.4863 39.6075 93.8863 39.0075 94.0863C38.8075 94.1863 38.5075 94.1863 38.3075 94.1863C38.1075 94.1863 37.9075 93.9863 37.8075 93.7863C37.5075 92.8863 36.8075 92.2863 35.9075 92.2863C34.7075 92.0863 33.4075 92.2863 32.2075 92.7863C31.9075 92.8863 31.6075 92.9863 31.3075 92.8863C31.1075 92.8863 31.0075 92.7863 30.8075 92.5863C30.6075 92.2863 31.0075 91.7863 31.5075 91.5863C33.3075 90.7863 35.3075 90.4863 37.1075 90.7863Z" fill="#4C68EF"/>
<path d="M39.5077 87.9863C42.2077 88.4863 44.0077 89.8863 44.3077 91.7863C44.4077 92.1863 43.9077 92.5863 43.3077 92.7863C43.1077 92.7863 42.8077 92.7863 42.6077 92.7863C42.3077 92.6863 42.1077 92.5863 42.1077 92.3863C41.8077 90.8863 40.4077 89.6863 38.2077 89.2863C35.7077 88.8863 33.2077 89.1863 30.9077 90.1863C30.6077 90.2863 30.3077 90.3863 30.0077 90.2863C29.8077 90.2863 29.7077 90.1863 29.5077 89.9863C29.3077 89.6863 29.7077 89.1863 30.2077 88.9863C33.3077 87.8863 36.4077 87.4863 39.5077 87.9863Z" fill="#4C68EF"/>
<path d="M17.1071 109.486C14.4071 108.986 12.6071 107.586 12.2071 105.686C12.1071 105.286 12.6071 104.886 13.2071 104.686C13.4071 104.586 13.7071 104.586 13.9071 104.586C14.1071 104.586 14.3071 104.786 14.4071 104.986C14.7071 106.586 16.1071 107.686 18.3071 108.086C15.9071 107.686 26.8071 106.686 25.6071 107.186C25.9071 107.086 26.2071 106.986 26.5071 107.086C26.7071 107.086 26.8071 107.186 26.9071 107.386C27.1071 107.686 26.8071 108.186 26.2071 108.386C23.4071 109.586 20.2071 109.986 17.1071 109.486Z" fill="#4C68EF"/>
<path d="M28.2073 109.686C28.4073 109.986 28.1073 110.486 27.5073 110.686C26.9073 110.886 13.9073 112.186 14.7073 112.286C10.9073 111.586 8.40734 109.586 7.90734 106.886C7.80734 106.586 8.30734 106.086 8.90734 105.886C9.10734 105.786 9.40734 105.786 9.60734 105.886C9.80734 105.886 10.0073 106.086 10.1073 106.286C10.5073 108.586 12.7073 110.286 15.9073 110.886C19.6073 111.486 23.4073 110.986 26.9073 109.486C27.2073 109.386 27.5073 109.286 27.8073 109.386C28.0073 109.486 28.1073 109.586 28.2073 109.686Z" fill="#4C68EF"/>
<path d="M19.5075 106.686C17.9075 106.386 16.8075 105.486 16.6075 104.386C16.5075 103.986 17.0075 103.586 17.6075 103.386C17.8075 103.286 18.1075 103.286 18.3075 103.386C18.5075 103.386 18.7075 103.586 18.8075 103.786C19.1075 104.686 19.8075 105.286 20.7075 105.286C17.3075 104.586 26.8075 103.886 24.4075 104.786C24.7075 104.686 25.0075 104.586 25.3075 104.686C25.5075 104.686 25.6075 104.786 25.7075 104.986C25.9075 105.286 25.5075 105.786 25.0075 105.986C23.3075 106.786 21.3075 106.986 19.5075 106.686Z" fill="#4C68EF"/>
<path d="M4.40723 105.986L5.80723 109.986C5.80723 110.086 5.80723 110.086 5.90723 110.186L4.50723 106.186C4.50723 106.086 4.40723 106.086 4.40723 105.986Z" fill="#163F79"/>
<path d="M57.4072 87.9863L58.8072 91.9863L58.9072 92.1863L57.5072 88.1863C57.5072 88.1863 57.4072 88.0863 57.4072 87.9863Z" fill="#163F79"/>
<path d="M57.5073 88.2863L58.9073 92.2863C59.1073 92.8863 59.2073 93.3863 59.3073 93.9863L57.9073 89.9863C57.8073 89.3863 57.7073 88.8863 57.5073 88.2863Z" fill="#17417D"/>
<path d="M57.9072 89.9863L59.3072 93.9863C59.4072 94.5863 59.4072 95.1863 59.4072 95.7863L58.0072 91.7863C58.0072 91.1863 57.9072 90.5863 57.9072 89.9863Z" fill="#184482"/>
<path d="M57.4072 87.9863C57.8072 89.2863 58.1072 90.5863 58.0072 91.9863C58.0072 92.1863 58.0072 92.2863 58.0072 92.4863C58.0072 92.6863 58.0072 92.7863 58.0072 92.8863C58.0072 92.9863 58.0072 93.1863 57.9072 93.3863C57.8072 93.5863 57.9072 93.6863 57.8072 93.7863C57.7072 93.8863 57.7072 94.1863 57.7072 94.3863L57.6072 94.7863C57.5072 94.9863 57.5072 95.2863 57.4072 95.4863L57.3072 95.7863C57.2072 96.1863 57.0072 96.5863 56.9072 96.8863C56.9072 96.9863 56.8072 97.0863 56.8072 97.1863C56.7072 97.4863 56.5072 97.7863 56.4072 98.0863L56.2072 98.4863L55.8072 98.9863L55.5072 99.4863L55.2072 99.9863C55.1072 100.186 55.0072 100.286 54.9072 100.486L54.5072 100.986L54.2072 101.486L53.8072 101.986L53.3072 102.586C52.8072 103.186 52.3072 103.686 51.7072 104.286C51.6072 104.386 51.4072 104.586 51.3072 104.686C50.8072 105.186 50.3072 105.686 49.8072 106.086L49.6072 106.286C49.0072 106.786 48.4072 107.186 47.8072 107.686C47.4072 107.986 46.9072 108.286 46.5072 108.586L45.5072 109.286C45.0072 109.586 44.5072 109.886 44.0072 110.186C43.5072 110.486 43.3072 110.586 42.9072 110.786L42.4072 110.986C41.8072 111.286 41.2072 111.686 40.5072 111.986L39.9072 112.286L38.8072 112.786C38.2072 113.086 37.6072 113.386 36.9072 113.586L35.7072 114.086L34.2072 114.686L32.9072 115.086L31.4072 115.486L30.0072 115.786L28.5072 116.086L27.2072 116.386L25.6072 116.686L24.3072 116.886C23.7072 116.986 23.0072 116.986 22.4072 117.086L21.2072 117.186H20.5072C19.9072 117.186 19.2072 117.186 18.6072 117.186H18.0072C17.4072 117.186 16.9072 117.086 16.3072 117.086L15.4072 116.986C14.6072 116.886 13.7072 116.786 12.9072 116.586C9.60723 116.086 6.50723 114.686 3.90723 112.686C2.30723 111.386 1.10723 109.686 0.407227 107.786L1.80723 111.786C3.30723 115.986 7.50723 119.286 14.2072 120.586C15.0072 120.786 15.8072 120.886 16.7072 120.986C17.0072 120.986 17.3072 120.986 17.6072 121.086C18.1072 121.086 18.6072 121.186 19.1072 121.186H20.0072C20.6072 121.186 21.3072 121.186 21.9072 121.186H22.6072H23.0072C23.3072 121.186 23.5072 121.086 23.8072 121.086C24.4072 121.086 25.1072 120.986 25.7072 120.886H26.2072L26.9072 120.786C27.4072 120.686 28.0072 120.586 28.5072 120.486L29.1072 120.386L29.8072 120.186L31.3072 119.886L32.0072 119.686L32.6072 119.486C33.1072 119.386 33.6072 119.186 34.1072 119.086L34.8072 118.886L35.4072 118.686C35.9072 118.486 36.4072 118.286 37.0072 118.086C37.2072 117.986 37.5072 117.886 37.8072 117.786L38.3072 117.586C38.9072 117.386 39.5072 117.086 40.2072 116.786L41.0072 116.486L41.3072 116.286L41.8072 115.986C42.4072 115.686 43.1072 115.386 43.7072 114.986L44.2072 114.786C44.3072 114.786 44.4072 114.686 44.4072 114.686C44.7072 114.486 45.0072 114.386 45.2072 114.186C45.7072 113.886 46.2072 113.586 46.7072 113.286C47.2072 112.986 47.4072 112.786 47.7072 112.586C48.0072 112.386 48.6072 111.986 49.0072 111.686L49.3072 111.486C49.8072 111.086 50.3072 110.686 50.8072 110.286L51.0072 109.986C51.5072 109.486 52.0072 109.086 52.5072 108.586C52.7072 108.486 52.8072 108.286 52.9072 108.186C53.4072 107.686 54.0072 107.086 54.5072 106.486L54.8072 106.186C54.9072 106.086 55.0072 105.986 55.0072 105.886L55.4072 105.386C55.5072 105.186 55.6072 105.086 55.7072 104.886C55.8072 104.686 55.9072 104.586 56.1072 104.386L56.4072 103.886C56.5072 103.686 56.6072 103.586 56.7072 103.386C56.8072 103.186 56.9072 103.086 57.0072 102.886L57.3072 102.386L57.4072 102.186L57.5072 101.986C57.6072 101.686 57.8072 101.386 57.9072 101.086C57.9072 100.986 58.0072 100.886 58.0072 100.786C58.2072 100.386 58.3072 100.086 58.4072 99.6863C58.4072 99.6863 58.4072 99.6863 58.4072 99.5863C58.4072 99.4863 58.4072 99.3863 58.5072 99.3863C58.6072 99.3863 58.7072 98.8863 58.7072 98.6863L58.8072 98.2863C58.8072 98.0863 58.9072 97.8863 58.9072 97.6863C58.9072 97.6863 58.9072 97.5863 58.9072 97.4863V97.2863C58.9072 97.0863 58.9072 96.9863 59.0072 96.7863C59.1072 96.5863 59.0072 96.4863 59.0072 96.3863V95.9863C59.0072 95.8863 59.0072 95.7863 59.0072 95.7863C59.1072 94.4863 58.9072 93.2863 58.6072 92.0863L57.4072 87.9863Z" fill="url(#paint4_linear)"/>
<path d="M45.007 79.1863C58.307 81.7863 62.007 92.1863 53.207 102.386C44.407 112.586 26.407 118.986 13.007 116.386C-0.392956 113.786 -3.99296 103.386 4.80704 93.1863C13.607 82.9863 31.607 76.6863 45.007 79.1863ZM15.207 113.786C26.707 115.986 42.207 110.586 49.807 101.786C57.407 92.9863 54.207 83.9863 42.707 81.7863C31.207 79.5863 15.707 84.9863 8.10704 93.7863C0.507044 102.586 3.70704 111.686 15.207 113.786Z" fill="url(#paint5_linear)"/>
<path d="M33.9068 96.4863C33.9068 96.6863 33.9068 96.8863 33.8068 96.9863V97.0863C33.7068 97.2863 33.7068 97.4863 33.6068 97.6863C33.5068 97.7863 33.4068 97.9863 33.3068 98.0863C33.2068 98.1863 33.2068 98.2863 33.1068 98.3863C32.9068 98.6863 32.6068 98.8863 32.3068 99.1863L32.0068 99.3863C31.9068 99.4863 31.7068 99.5863 31.5068 99.6863C31.3068 99.7863 31.1068 99.8863 30.9068 99.9863L30.8068 100.086C30.5068 100.186 30.3068 100.286 30.0068 100.386H29.9068C29.6068 100.486 29.4068 100.586 29.1068 100.586H29.0068C28.7068 100.686 28.4068 100.686 28.2068 100.686H28.1068C27.9068 100.686 27.6068 100.686 27.3068 100.686H27.0068C26.7068 100.686 26.4068 100.686 26.1068 100.586C25.2068 100.586 24.4068 100.086 24.0068 99.2863L24.8068 101.686C25.2068 102.586 26.0068 103.086 27.0068 103.186C27.3068 103.286 27.6068 103.286 27.8068 103.286H28.5068H28.8068H29.0068L29.5068 103.186H29.7068H29.8068H30.0068L30.5068 103.086L30.6068 102.986H30.7068H31.0068C31.2068 102.886 31.4068 102.886 31.5068 102.786C31.5068 102.786 31.5068 102.786 31.6068 102.786L31.7068 102.686L32.1068 102.486L32.3068 102.386L32.7068 102.086L32.9068 101.886L33.0068 101.786C33.3068 101.586 33.6068 101.286 33.8068 100.986C33.9068 100.886 33.9068 100.786 34.0068 100.686C34.1068 100.586 34.2068 100.486 34.2068 100.286C34.3068 100.186 34.3068 99.9863 34.4068 99.8863V99.7863V99.6863C34.4068 99.5863 34.4068 99.5863 34.4068 99.4863C34.4068 99.3863 34.4068 99.2863 34.4068 99.1863C34.4068 99.0863 34.4068 99.1863 34.4068 99.1863V99.0863C34.4068 98.9863 34.4068 98.9863 34.4068 98.8863C34.4068 98.7863 34.4068 98.6863 34.3068 98.5863L33.8068 95.9863C33.9068 96.1863 33.9068 96.2863 33.9068 96.4863Z" fill="url(#paint6_linear)"/>
<path d="M31.7072 94.3863C34.0072 94.7863 34.6072 96.5863 33.1072 98.3863C31.3072 100.286 28.7072 101.186 26.2072 100.786C23.9072 100.386 23.3072 98.5863 24.8072 96.7863C26.5072 94.9863 29.1072 94.0863 31.7072 94.3863Z" fill="url(#paint7_linear)"/>
<path d="M144.107 100.386C143.407 100.286 142.707 100.186 142.007 100.086C141.807 100.086 141.507 100.086 141.307 99.9863C140.907 99.9863 140.507 99.8863 140.007 99.8863H139.307C138.707 99.8863 138.207 99.8863 137.607 99.8863H137.007H136.607L136.007 99.9863C135.407 99.9863 134.907 100.086 134.407 100.186H134.007L133.407 100.286C132.907 100.386 132.507 100.386 132.007 100.486C131.807 100.486 131.607 100.486 131.407 100.586L130.807 100.686L129.507 100.986L128.907 101.086L128.307 101.286L127.007 101.686L126.407 101.886L125.907 102.086C125.507 102.286 125.007 102.386 124.607 102.586L123.907 102.786L123.507 102.986C123.007 103.186 122.407 103.486 121.907 103.686L121.207 103.986L120.907 104.086L120.407 104.286L118.807 105.086L118.407 105.286L118.207 105.386C118.007 105.486 117.707 105.686 117.507 105.786C117.107 105.986 116.707 106.286 116.307 106.586C115.907 106.886 115.707 106.986 115.407 107.186C115.107 107.386 114.607 107.686 114.307 107.986C114.207 108.086 114.107 108.086 114.107 108.186C113.707 108.486 113.207 108.886 112.807 109.186L112.607 109.386C112.107 109.786 111.707 110.186 111.307 110.586L110.907 110.986C110.407 111.486 110.007 111.886 109.607 112.386L109.407 112.686C109.107 113.086 108.707 113.486 108.407 113.886L108.207 114.086C107.907 114.586 107.607 115.086 107.307 115.486L107.207 115.686L107.007 115.986C106.807 116.386 106.607 116.786 106.407 117.186L106.307 117.386C106.207 117.586 106.107 117.886 106.007 118.086C105.907 118.286 105.907 118.486 105.807 118.686L105.707 118.886C105.607 119.186 105.507 119.586 105.507 119.886C105.507 119.986 105.507 120.086 105.507 120.186V120.386C105.507 120.786 105.407 121.086 105.407 121.486C105.407 121.986 105.407 122.486 105.507 122.986C105.507 123.286 105.607 123.586 105.707 123.886C105.707 123.986 105.707 123.986 105.807 124.086C105.807 124.186 105.907 124.386 105.907 124.486V124.686C105.907 124.686 105.907 124.686 105.907 124.786L107.307 128.786C107.207 128.486 107.107 128.086 107.007 127.786C107.007 127.786 107.007 127.786 107.007 127.686C106.907 127.386 106.907 127.086 106.907 126.786V126.686C106.807 125.986 106.807 125.286 106.907 124.586V124.386C107.007 123.886 107.107 123.486 107.207 122.986C107.207 122.886 107.307 122.886 107.307 122.786C107.407 122.386 107.607 121.886 107.707 121.486C107.707 121.386 107.807 121.286 107.807 121.286C108.007 120.786 108.307 120.286 108.507 119.786L108.607 119.586C108.907 119.086 109.207 118.586 109.507 118.186C109.507 118.086 109.607 118.086 109.707 117.986C110.107 117.486 110.507 116.986 110.907 116.486C111.307 115.986 111.807 115.486 112.207 115.086C112.307 114.986 112.407 114.886 112.607 114.686C113.007 114.286 113.507 113.886 113.907 113.486L114.107 113.286C114.607 112.886 115.107 112.486 115.707 112.086C116.107 111.786 116.507 111.586 116.807 111.286C117.107 110.986 117.407 110.886 117.707 110.686C118.007 110.486 118.507 110.186 119.007 109.886C119.507 109.586 119.607 109.486 119.907 109.386L120.307 109.186C120.807 108.886 121.407 108.586 121.907 108.386L122.407 108.186L123.407 107.786C123.907 107.586 124.507 107.286 125.007 107.086L126.007 106.686L127.307 106.186C127.707 106.086 128.107 105.986 128.407 105.786C128.807 105.686 129.207 105.586 129.707 105.386C130.207 105.186 130.507 105.186 130.907 105.086C131.307 104.986 131.707 104.886 132.207 104.786L133.307 104.586L134.707 104.386C135.107 104.286 135.407 104.286 135.807 104.186C136.407 104.086 136.907 104.086 137.407 103.986C137.807 103.986 138.107 103.886 138.507 103.886H139.107C139.707 103.886 140.207 103.886 140.807 103.886H141.307C141.807 103.886 142.307 103.986 142.807 103.986L143.507 104.086C144.207 104.186 144.907 104.286 145.607 104.386C151.407 105.486 155.107 108.286 156.307 111.986L154.907 107.986C153.607 104.286 149.907 101.486 144.107 100.386Z" fill="#4C68EF"/>
<path opacity="0.25" d="M145.107 101.686C157.007 103.986 160.207 113.186 152.407 122.286C144.607 131.386 128.607 136.986 116.807 134.686C105.007 132.386 101.707 123.186 109.507 114.086C117.307 104.986 133.307 99.3863 145.107 101.686Z" fill="url(#paint8_linear)"/>
<path d="M150.107 109.086C150.207 109.386 149.707 109.886 149.107 110.086C148.907 110.186 148.607 110.186 148.407 110.186C148.207 110.186 148.007 109.986 147.907 109.786C147.507 107.486 145.307 105.786 142.107 105.186C138.407 104.586 134.607 105.086 131.107 106.586C130.807 106.686 130.507 106.786 130.207 106.686C130.007 106.686 129.807 106.586 129.807 106.386C129.607 106.086 130.007 105.586 130.507 105.386C134.507 103.686 139.007 103.086 143.307 103.786C147.107 104.386 149.607 106.386 150.107 109.086Z" fill="#4C68EF"/>
<path d="M138.507 109.286C140.107 109.586 141.207 110.486 141.407 111.586C141.507 111.986 141.007 112.386 140.407 112.586C140.207 112.686 139.907 112.686 139.707 112.686C139.507 112.686 139.307 112.486 139.207 112.286C138.907 111.386 138.207 110.786 137.307 110.786C136.107 110.586 134.807 110.786 133.607 111.286C133.307 111.386 133.007 111.486 132.707 111.386C132.507 111.386 132.407 111.286 132.307 111.086C132.107 110.786 132.407 110.286 133.007 110.086C134.707 109.286 136.607 109.086 138.507 109.286Z" fill="#4C68EF"/>
<path d="M140.907 106.486C143.607 106.986 145.407 108.386 145.707 110.286C145.807 110.686 145.307 111.086 144.707 111.286C144.507 111.386 144.207 111.386 144.007 111.286C143.707 111.186 143.607 111.086 143.507 110.886C143.207 109.386 141.807 108.186 139.607 107.786C137.107 107.386 134.607 107.686 132.307 108.686C132.007 108.786 131.707 108.886 131.407 108.786C131.207 108.786 131.107 108.686 131.007 108.486C130.807 108.186 131.207 107.686 131.707 107.486C134.607 106.486 137.807 106.086 140.907 106.486Z" fill="#4C68EF"/>
<path d="M118.407 128.086C115.707 127.586 113.907 126.186 113.607 124.186C113.507 123.786 114.007 123.386 114.607 123.186C114.807 123.086 115.107 123.086 115.307 123.086C115.507 123.086 115.707 123.286 115.807 123.486C116.107 125.086 117.507 126.186 119.707 126.586C117.407 126.186 128.207 125.186 127.007 125.686C127.307 125.586 127.607 125.486 127.907 125.586C128.107 125.586 128.207 125.686 128.307 125.886C128.507 126.186 128.107 126.686 127.607 126.886C124.707 128.186 121.507 128.586 118.407 128.086Z" fill="#4C68EF"/>
<path d="M129.607 128.286C129.807 128.586 129.507 129.086 128.907 129.286C128.307 129.486 115.307 130.786 116.107 130.886C112.307 130.186 109.807 128.186 109.307 125.486C109.207 125.186 109.707 124.686 110.307 124.486C110.507 124.386 110.807 124.386 111.007 124.486C111.207 124.486 111.407 124.686 111.507 124.886C111.907 127.186 114.107 128.886 117.307 129.486C121.007 130.086 124.807 129.586 128.307 128.086C128.607 127.986 128.907 127.886 129.207 127.986C129.307 127.986 129.507 128.086 129.607 128.286Z" fill="#4C68EF"/>
<path d="M120.807 125.286C119.207 124.986 118.107 124.086 117.907 122.986C117.807 122.586 118.307 122.186 118.907 121.986C119.107 121.886 119.407 121.886 119.607 121.986C119.807 121.986 120.007 122.186 120.107 122.386C120.407 123.286 121.107 123.886 122.007 123.886C118.607 123.186 128.107 122.486 125.707 123.386C126.007 123.286 126.307 123.186 126.607 123.286C126.807 123.286 126.907 123.386 127.007 123.586C127.207 123.886 126.807 124.386 126.307 124.586C124.607 125.386 122.707 125.586 120.807 125.286Z" fill="#4C68EF"/>
<path d="M105.807 124.586L107.207 128.586C107.207 128.686 107.307 128.686 107.307 128.786L105.907 124.786C105.807 124.686 105.807 124.686 105.807 124.586Z" fill="#163F79"/>
<path d="M158.807 106.586L160.207 110.586C160.207 110.686 160.307 110.786 160.307 110.786L158.907 106.786L158.807 106.586Z" fill="#163F79"/>
<path d="M158.807 106.786L160.207 110.786C160.407 111.386 160.507 111.886 160.607 112.486L159.207 108.486C159.107 107.986 159.007 107.386 158.807 106.786Z" fill="#17417D"/>
<path d="M159.207 108.486L160.607 112.486C160.707 113.086 160.707 113.686 160.707 114.286L159.307 110.286C159.307 109.686 159.307 109.086 159.207 108.486Z" fill="#184482"/>
<path d="M158.807 106.586C159.207 107.886 159.407 109.186 159.407 110.486V110.986C159.407 111.086 159.407 111.286 159.307 111.386C159.207 111.486 159.307 111.686 159.207 111.886C159.107 112.086 159.207 112.186 159.107 112.286C159.007 112.386 159.007 112.686 159.007 112.886C159.007 113.086 158.907 113.086 158.907 113.286C158.907 113.486 158.807 113.786 158.707 113.986L158.607 114.286C158.507 114.686 158.307 115.086 158.207 115.386C158.207 115.486 158.107 115.586 158.107 115.686L157.707 116.586C157.607 116.686 157.607 116.886 157.507 116.986L157.207 117.486L156.907 117.986L156.607 118.486L156.307 118.986L155.907 119.486C155.807 119.686 155.707 119.786 155.607 119.986L155.207 120.486C155.007 120.686 154.907 120.886 154.707 121.086C154.207 121.686 153.707 122.186 153.107 122.786L152.707 123.186C152.207 123.686 151.707 124.086 151.107 124.586L150.907 124.786C150.307 125.286 149.707 125.686 149.107 126.186C148.707 126.486 148.207 126.786 147.807 127.086L146.807 127.786C146.307 128.086 145.807 128.386 145.407 128.686C145.007 128.986 144.707 129.086 144.307 129.286L143.807 129.486C143.207 129.786 142.607 130.086 141.907 130.486L141.307 130.786C140.907 130.986 140.607 131.086 140.207 131.286C139.607 131.586 139.007 131.886 138.307 132.086L137.107 132.586L135.507 133.186L134.207 133.586L132.707 133.986L131.307 134.286L129.807 134.586L128.507 134.886L126.907 135.186L125.607 135.386C125.007 135.486 124.307 135.486 123.707 135.586L122.507 135.686H121.807C121.107 135.686 120.507 135.686 119.907 135.686H119.307C118.707 135.686 118.107 135.586 117.607 135.586L116.807 135.486C116.007 135.386 115.107 135.286 114.307 135.086C111.007 134.586 107.907 133.286 105.307 131.186C103.707 129.886 102.507 128.186 101.807 126.286L103.207 130.286C104.707 134.486 108.907 137.786 115.707 139.086C116.507 139.286 117.307 139.386 118.207 139.486C118.507 139.486 118.807 139.486 119.007 139.586C119.507 139.586 120.007 139.686 120.507 139.686H121.307C121.907 139.686 122.607 139.686 123.207 139.686H123.907H124.307L125.107 139.586C125.707 139.586 126.407 139.486 127.007 139.386H127.507L128.307 139.286C128.807 139.186 129.407 139.086 129.907 138.986L130.507 138.886L131.207 138.686L132.707 138.386L133.407 138.186L134.007 137.986L135.507 137.586L136.207 137.386L136.807 137.186C137.307 136.986 137.807 136.786 138.407 136.586L139.207 136.286L139.607 136.086C140.207 135.886 140.907 135.586 141.507 135.286L142.307 134.986L142.707 134.786L143.307 134.486C143.907 134.186 144.607 133.886 145.207 133.486L145.707 133.286C145.807 133.286 145.807 133.186 145.907 133.186C146.207 132.986 146.507 132.886 146.807 132.686C147.307 132.386 147.807 132.086 148.207 131.786C148.607 131.486 148.907 131.286 149.207 131.086C149.507 130.886 150.107 130.486 150.507 130.186L150.807 129.986C151.307 129.586 151.807 129.186 152.307 128.786L152.507 128.586C153.007 128.086 153.507 127.686 154.107 127.186L154.507 126.786C155.007 126.286 155.607 125.686 156.107 125.086L156.407 124.786L156.607 124.486L157.007 123.986L157.407 123.486L157.807 122.986L158.107 122.486L158.407 121.986L158.707 121.486C158.807 121.286 158.907 121.186 159.007 120.986L159.107 120.786L159.207 120.586C159.407 120.286 159.507 119.986 159.607 119.686C159.607 119.586 159.707 119.486 159.707 119.386C159.907 118.986 160.007 118.686 160.107 118.286C160.107 118.186 160.207 118.086 160.207 118.086L160.407 117.386L160.507 116.986C160.607 116.786 160.607 116.586 160.607 116.386V116.186C160.607 116.086 160.607 115.986 160.607 115.986C160.607 115.986 160.707 115.686 160.707 115.486C160.707 115.286 160.707 115.186 160.707 115.086C160.707 114.886 160.707 114.786 160.707 114.586C160.707 114.486 160.707 114.486 160.707 114.386C160.707 113.186 160.607 111.886 160.107 110.686L158.807 106.586Z" fill="url(#paint9_linear)"/>
<path d="M146.307 97.7863C159.707 100.386 163.307 110.786 154.507 120.986C145.707 131.186 127.707 137.486 114.307 134.986C100.907 132.486 97.3068 121.986 106.107 111.786C114.907 101.586 132.907 95.1863 146.307 97.7863ZM116.607 132.386C128.107 134.586 143.607 129.186 151.207 120.386C158.807 111.586 155.607 102.586 144.107 100.386C132.607 98.1863 117.107 103.586 109.507 112.386C101.907 121.186 105.107 130.186 116.607 132.386Z" fill="#E1F0FF"/>
<path d="M135.307 115.086C135.307 115.286 135.307 115.486 135.207 115.586V115.686C135.107 115.886 135.107 116.086 135.007 116.286C134.907 116.386 134.807 116.586 134.807 116.686C134.707 116.786 134.707 116.886 134.607 116.986C134.407 117.286 134.107 117.486 133.807 117.786C133.707 117.886 133.607 117.986 133.507 117.986L133.107 118.286L132.507 118.586L132.407 118.686C132.107 118.786 131.907 118.886 131.607 118.986H131.507C131.207 119.086 131.007 119.186 130.707 119.186H130.607C130.307 119.286 130.007 119.286 129.807 119.286H129.707C129.507 119.286 129.207 119.286 128.907 119.286H128.807C128.507 119.286 128.207 119.286 127.907 119.186C127.007 119.086 126.107 118.486 125.807 117.686L126.607 120.086C127.007 120.986 127.807 121.486 128.707 121.586C129.007 121.686 129.207 121.686 129.507 121.686H130.207H130.507H130.807L131.307 121.586H131.507H131.607H131.807L132.307 121.486L132.407 121.386H132.507L132.707 121.286C132.907 121.186 133.107 121.186 133.207 121.086C133.207 121.086 133.207 121.086 133.307 121.086L133.407 120.986L133.807 120.786L134.007 120.686L134.407 120.386L134.607 120.186L134.707 120.086C135.007 119.886 135.307 119.586 135.507 119.286V119.186C135.607 119.086 135.607 118.986 135.707 118.886C135.807 118.786 135.907 118.686 136.007 118.486C136.107 118.386 136.107 118.186 136.207 118.086V117.986V117.886C136.207 117.786 136.207 117.786 136.207 117.686C136.207 117.586 136.207 117.486 136.207 117.386V117.286C136.207 117.186 136.207 117.186 136.207 117.086C136.207 116.986 136.207 116.886 136.107 116.786L135.307 114.386C135.107 114.786 135.207 114.886 135.307 115.086Z" fill="url(#paint10_linear)"/>
<path d="M133.007 112.986C135.307 113.386 135.907 115.186 134.407 116.986C132.607 118.886 130.007 119.786 127.507 119.386C125.207 118.986 124.607 117.186 126.107 115.386C127.907 113.486 130.407 112.586 133.007 112.986Z" fill="url(#paint11_linear)"/>
<path d="M213.807 21.2863C213.107 21.1863 212.407 21.0863 211.707 20.9863C211.507 20.9863 211.207 20.9863 211.007 20.8863C210.607 20.8863 210.207 20.7863 209.707 20.7863H209.007C208.407 20.7863 207.907 20.7863 207.307 20.7863H206.707H206.307L205.607 20.8863C205.107 20.8863 204.507 20.9863 204.007 20.9863H203.607L203.007 21.0863C202.507 21.1863 202.107 21.1863 201.607 21.2863C201.407 21.2863 201.207 21.2863 201.007 21.3863C200.807 21.4863 200.607 21.4863 200.407 21.4863L199.107 21.7863C198.907 21.7863 198.707 21.8863 198.507 21.8863L197.907 22.0863C197.507 22.1863 197.007 22.2863 196.607 22.4863L196.007 22.6863L195.507 22.8863L194.207 23.3863C194.007 23.4863 193.807 23.4863 193.507 23.5863L193.107 23.7863C192.507 23.9863 192.007 24.2863 191.507 24.4863C191.307 24.5863 191.107 24.6863 190.907 24.7863L190.607 24.8863L190.107 25.0863C189.607 25.3863 189.007 25.5863 188.507 25.8863L188.107 26.0863L187.907 26.1863C187.707 26.2863 187.407 26.4863 187.207 26.6863C186.807 26.8863 186.307 27.1863 186.007 27.4863L185.107 28.0863C184.707 28.3863 184.307 28.5863 184.007 28.8863L183.807 29.0863C183.407 29.3863 182.907 29.7863 182.507 30.0863L182.307 30.2863C181.807 30.6863 181.407 31.0863 181.007 31.4863C180.907 31.5863 180.707 31.6863 180.607 31.8863C180.107 32.3863 179.707 32.7863 179.207 33.2863L179.007 33.5863C178.707 33.9863 178.307 34.3863 178.007 34.7863L177.907 34.9863C177.607 35.4863 177.307 35.9863 177.007 36.3863L176.907 36.5863L176.807 36.8863C176.607 37.2863 176.407 37.6863 176.207 38.0863C176.207 38.1863 176.107 38.2863 176.107 38.2863C176.007 38.4863 175.907 38.7863 175.807 38.9863C175.707 39.1863 175.707 39.3863 175.607 39.5863L175.507 39.7863C175.407 40.0863 175.307 40.4863 175.307 40.7863C175.307 40.8863 175.307 40.9863 175.307 41.0863C175.307 41.1863 175.307 41.1863 175.307 41.2863C175.307 41.6863 175.207 41.9863 175.207 42.3863C175.207 42.8863 175.207 43.3863 175.307 43.8863C175.307 44.1863 175.407 44.4863 175.507 44.7863C175.507 44.8863 175.507 44.8863 175.607 44.9863C175.707 45.0863 175.707 45.2863 175.707 45.3863L175.807 45.5863C175.807 45.5863 175.807 45.5863 175.807 45.6863L177.207 49.6863C177.107 49.3863 177.007 48.9863 176.907 48.6863V48.5863C176.807 48.2863 176.807 47.9863 176.807 47.6863V47.5863C176.707 46.8863 176.807 46.1863 176.907 45.4863V45.2863C177.007 44.7863 177.107 44.3863 177.207 43.8863L177.307 43.6863C177.407 43.2863 177.607 42.7863 177.807 42.3863C177.807 42.2863 177.907 42.1863 177.907 42.1863C178.107 41.6863 178.407 41.1863 178.607 40.6863L178.707 40.4863C179.007 39.9863 179.307 39.4863 179.607 39.0863L179.707 38.8863C180.107 38.3863 180.507 37.8863 180.907 37.3863C181.307 36.8863 181.807 36.3863 182.307 35.9863L182.707 35.5863C183.107 35.1863 183.607 34.7863 184.007 34.3863L184.207 34.1863C184.707 33.7863 185.207 33.3863 185.707 32.9863C186.107 32.6863 186.507 32.4863 186.807 32.1863C187.207 31.8863 187.407 31.7863 187.707 31.5863C188.007 31.3863 188.507 31.0863 189.007 30.7863C189.507 30.4863 189.607 30.3863 189.907 30.2863L190.307 30.0863C190.807 29.7863 191.407 29.4863 191.907 29.2863L192.007 28.9863L193.007 28.5863C193.507 28.3863 194.107 28.0863 194.607 27.8863L195.707 27.4863L197.007 26.9863C197.407 26.8863 197.807 26.7863 198.107 26.5863L199.407 26.1863L200.607 25.8863L201.907 25.5863L203.007 25.3863C203.507 25.2863 203.907 25.1863 204.407 25.1863C204.907 25.1863 205.107 25.0863 205.507 25.0863C206.107 24.9863 206.607 24.9863 207.107 24.8863C207.507 24.8863 207.807 24.7863 208.207 24.7863H208.807C209.407 24.7863 209.907 24.7863 210.507 24.7863H211.007C211.507 24.7863 212.007 24.7863 212.507 24.8863H213.107C213.807 24.9863 214.507 25.0863 215.207 25.1863C221.007 26.2863 224.707 29.0863 225.907 32.7863L224.507 28.7863C223.207 25.2863 219.607 22.3863 213.807 21.2863Z" fill="#4C68EF"/>
<path opacity="0.25" d="M214.807 22.6863C226.707 24.9863 229.907 34.1863 222.107 43.2863C214.307 52.3863 198.307 57.9863 186.407 55.6863C174.507 53.3863 171.307 44.1863 179.107 35.0863C186.907 25.9863 202.907 20.3863 214.807 22.6863Z" fill="url(#paint12_linear)"/>
<path d="M219.807 30.0863C219.907 30.4863 219.407 30.8863 218.807 31.0863C218.607 31.1863 218.307 31.1863 218.107 31.1863C217.907 31.1863 217.707 30.9863 217.607 30.7863C217.207 28.4863 215.007 26.7863 211.807 26.1863C208.107 25.5863 204.307 26.0863 200.807 27.5863C200.507 27.6863 200.207 27.7863 199.907 27.6863C199.707 27.6863 199.607 27.5863 199.507 27.3863C199.307 27.0863 199.707 26.5863 200.207 26.3863C204.307 24.5863 208.707 24.0863 213.107 24.6863C216.807 25.3863 219.207 27.3863 219.807 30.0863Z" fill="#4C68EF"/>
<path d="M208.107 30.2863C209.707 30.5863 210.807 31.3863 211.007 32.5863C211.107 32.9863 210.607 33.3863 210.007 33.5863C209.807 33.6863 209.507 33.6863 209.307 33.5863C209.007 33.5863 208.907 33.3863 208.807 33.1863C208.507 32.2863 207.807 31.6863 206.907 31.6863C205.707 31.4863 204.407 31.6863 203.207 32.1863C202.907 32.2863 202.607 32.3863 202.307 32.2863C202.107 32.2863 202.007 32.1863 201.907 31.9863C201.707 31.6863 202.007 31.1863 202.607 30.9863C204.307 30.2863 206.307 29.9863 208.107 30.2863Z" fill="#4C68EF"/>
<path d="M210.607 27.4863C213.307 27.9863 215.107 29.3863 215.407 31.3863C215.507 31.7863 215.007 32.1863 214.407 32.3863C214.207 32.4863 213.907 32.4863 213.707 32.3863C213.407 32.3863 213.307 32.1863 213.207 31.9863C212.907 30.4863 211.507 29.2863 209.307 28.8863C206.807 28.4863 204.307 28.8863 202.007 29.7863C201.707 29.8863 201.407 29.9863 201.107 29.8863C200.907 29.8863 200.707 29.7863 200.607 29.5863C200.407 29.2863 200.807 28.7863 201.307 28.5863C204.207 27.3863 207.407 26.9863 210.607 27.4863Z" fill="#4C68EF"/>
<path d="M188.107 49.0863C185.407 48.5863 183.607 47.1863 183.307 45.1863C183.207 44.8863 183.707 44.3863 184.307 44.1863C184.507 44.0863 184.807 44.0863 185.007 44.0863C185.207 44.0863 185.407 44.2863 185.507 44.4863C185.807 45.9863 187.207 47.1863 189.407 47.5863C187.007 47.0863 197.907 46.1863 196.707 46.6863C197.007 46.5863 197.307 46.4863 197.607 46.5863C197.807 46.5863 197.907 46.6863 198.007 46.8863C198.207 47.1863 197.807 47.6863 197.307 47.8863C194.407 49.0863 191.207 49.4863 188.107 49.0863Z" fill="#4C68EF"/>
<path d="M199.207 49.1863C199.407 49.4863 199.107 49.9863 198.507 50.1863C197.907 50.3863 184.907 51.6863 185.707 51.8863C181.907 51.1863 179.507 49.1863 178.907 46.4863C178.807 46.1863 179.307 45.6863 179.907 45.4863C180.107 45.3863 180.407 45.3863 180.607 45.3863C180.807 45.3863 181.007 45.5863 181.107 45.7863C181.507 48.0863 183.707 49.7863 186.907 50.3863C190.607 50.9863 194.407 50.4863 197.907 48.9863C198.207 48.8863 198.507 48.7863 198.807 48.8863C199.007 48.9863 199.107 49.0863 199.207 49.1863Z" fill="#4C68EF"/>
<path d="M190.507 46.2863C188.907 45.9863 187.807 45.0863 187.607 43.9863C187.507 43.5863 188.007 43.1863 188.607 42.9863C188.807 42.8863 189.107 42.8863 189.307 42.9863C189.507 42.9863 189.707 43.1863 189.807 43.3863C190.107 44.2863 190.807 44.8863 191.707 44.8863C188.307 44.1863 197.807 43.3863 195.407 44.3863C195.707 44.2863 196.007 44.1863 196.307 44.2863C196.507 44.2863 196.607 44.3863 196.707 44.5863C196.907 44.8863 196.607 45.3863 196.007 45.5863C194.307 46.2863 192.407 46.4863 190.507 46.2863Z" fill="#4C68EF"/>
<path d="M175.407 45.5863L176.807 49.5863L176.907 49.7863L175.507 45.7863C175.507 45.6863 175.407 45.5863 175.407 45.5863Z" fill="#163F79"/>
<path d="M228.407 27.5863L229.807 31.5863C229.807 31.6863 229.907 31.7863 229.907 31.7863L228.507 27.7863C228.507 27.6863 228.407 27.6863 228.407 27.5863Z" fill="#163F79"/>
<path d="M228.507 27.7863L229.907 31.7863C230.107 32.3863 230.207 32.8863 230.307 33.4863L228.907 29.4863C228.807 28.8863 228.707 28.3863 228.507 27.7863Z" fill="#17417D"/>
<path d="M228.907 29.4863L230.307 33.4863C230.407 34.0863 230.407 34.6863 230.407 35.2863L229.007 31.2863C229.007 30.6863 229.007 30.0863 228.907 29.4863Z" fill="#184482"/>
<path d="M228.407 27.5863C228.807 28.8863 229.007 30.1863 229.007 31.4863V31.9863C229.007 32.0863 229.007 32.2863 228.907 32.3863C228.807 32.4863 228.907 32.6863 228.807 32.8863C228.707 33.0863 228.807 33.1863 228.707 33.2863C228.607 33.3863 228.607 33.6863 228.607 33.8863L228.507 34.2863C228.407 34.4863 228.407 34.7863 228.307 34.9863C228.307 35.0863 228.207 35.1863 228.207 35.2863C228.107 35.6863 227.907 35.9863 227.807 36.3863C227.707 36.4863 227.707 36.5863 227.707 36.6863C227.607 36.9863 227.407 37.2863 227.307 37.5863C227.207 37.6863 227.207 37.8863 227.107 37.9863C227.007 38.0863 226.907 38.2863 226.807 38.4863L226.507 38.9863L226.207 39.4863L225.907 39.9863C225.807 40.1863 225.707 40.2863 225.507 40.4863C225.407 40.6863 225.307 40.7863 225.107 40.9863C224.907 41.1863 224.807 41.2863 224.707 41.4863C224.607 41.6863 224.407 41.8863 224.207 42.0863C223.707 42.6863 223.207 43.1863 222.607 43.7863C222.507 43.9863 222.307 44.0863 222.207 44.1863C221.707 44.6863 221.207 45.1863 220.607 45.5863L220.407 45.7863C219.807 46.2863 219.207 46.7863 218.607 47.1863C218.207 47.4863 217.707 47.7863 217.307 48.0863C216.907 48.3863 216.607 48.5863 216.307 48.7863C216.007 48.9863 215.307 49.3863 214.907 49.6863C214.507 49.9863 214.207 50.0863 213.807 50.2863L213.407 50.4863C212.807 50.7863 212.207 51.1863 211.507 51.4863L210.907 51.7863C210.507 51.9863 210.207 52.0863 209.807 52.2863L208.007 52.9863L206.807 53.4863C206.307 53.6863 205.807 53.8863 205.207 53.9863C204.607 54.0863 204.307 54.2863 203.907 54.3863C203.507 54.4863 202.907 54.6863 202.407 54.7863C201.907 54.8863 201.507 54.9863 201.107 55.0863C200.707 55.1863 200.107 55.2863 199.607 55.3863C199.107 55.4863 198.707 55.5863 198.307 55.6863L196.707 55.9863L195.507 56.1863C194.907 56.2863 194.207 56.2863 193.607 56.3863L192.407 56.4863H191.707C191.107 56.4863 190.407 56.4863 189.807 56.4863H189.207C188.607 56.4863 188.107 56.3863 187.507 56.3863C187.207 56.3863 186.907 56.3863 186.607 56.2863C185.807 56.1863 184.907 56.0863 184.107 55.8863C180.807 55.3863 177.707 54.0863 175.107 51.9863C173.507 50.6863 172.307 48.9863 171.607 47.0863L173.007 51.0863C174.507 55.2863 178.707 58.5863 185.507 59.8863C186.307 60.0863 187.107 60.1863 188.007 60.2863L188.807 60.3863C189.307 60.3863 189.807 60.4863 190.307 60.4863H191.107C191.707 60.4863 192.407 60.4863 193.007 60.4863H193.707H194.107L194.907 60.3863C195.507 60.3863 196.207 60.2863 196.807 60.1863C197.007 60.1863 197.107 60.1863 197.307 60.1863L198.007 59.9863C198.507 59.8863 199.107 59.7863 199.607 59.6863L200.207 59.5863L200.907 59.3863L202.407 59.0863L203.107 58.8863C203.307 58.8863 203.507 58.7863 203.707 58.6863L205.207 58.2863C205.407 58.1863 205.707 58.1863 205.907 58.0863L206.507 57.8863C207.007 57.6863 207.507 57.4863 208.107 57.3863C208.407 57.2863 208.607 57.1863 208.907 57.0863L209.307 56.8863C209.907 56.6863 210.607 56.3863 211.207 56.0863C211.407 55.9863 211.707 55.8863 212.007 55.7863L212.407 55.5863L213.007 55.2863C213.607 54.9863 214.207 54.6863 214.907 54.2863L215.407 54.0863L215.607 53.9863C215.907 53.7863 216.207 53.6863 216.507 53.4863L217.907 52.5863C218.207 52.3863 218.607 52.0863 218.907 51.8863C219.207 51.6863 219.807 51.2863 220.207 50.9863L220.507 50.7863C221.007 50.3863 221.507 49.9863 222.007 49.5863L222.207 49.3863C222.707 48.8863 223.307 48.4863 223.807 47.9863L224.207 47.5863C224.807 47.0863 225.307 46.4863 225.807 45.8863L226.107 45.5863L226.307 45.2863L226.707 44.7863L227.107 44.2863L227.507 43.7863C227.607 43.5863 227.707 43.4863 227.807 43.2863C227.907 43.0863 228.007 42.9863 228.107 42.7863C228.207 42.5863 228.307 42.4863 228.407 42.2863L228.707 41.7863L228.807 41.5863C228.807 41.4863 228.907 41.4863 228.907 41.3863C229.007 41.0863 229.207 40.7863 229.307 40.4863C229.307 40.3863 229.407 40.2863 229.407 40.1863C229.607 39.7863 229.707 39.4863 229.807 39.0863L229.907 38.8863L230.107 38.1863L230.207 37.7863C230.307 37.5863 230.307 37.3863 230.307 37.1863C230.307 36.9863 230.307 37.0863 230.307 36.9863C230.307 36.8863 230.307 36.7863 230.307 36.7863C230.307 36.7863 230.407 36.4863 230.407 36.2863C230.407 36.0863 230.407 35.9863 230.407 35.8863C230.407 35.7863 230.407 35.5863 230.407 35.3863C230.407 35.1863 230.407 35.1863 230.407 35.1863C230.407 33.8863 230.307 32.6863 229.807 31.4863L228.407 27.5863Z" fill="url(#paint13_linear)"/>
<path d="M216.007 18.7863C229.407 21.3863 233.007 31.7863 224.207 41.9863C215.407 52.1863 197.407 58.4863 184.007 55.9863C170.607 53.4863 166.907 42.9863 175.807 32.6863C184.707 22.3863 202.607 16.1863 216.007 18.7863ZM186.307 53.3863C197.807 55.5863 213.307 50.1863 220.907 41.3863C228.507 32.5863 225.307 23.5863 213.807 21.3863C202.307 19.1863 186.807 24.5863 179.207 33.3863C171.607 42.1863 174.807 51.1863 186.307 53.3863Z" fill="url(#paint14_linear)"/>
<path d="M204.907 35.9863C204.907 36.1863 204.907 36.3863 204.807 36.5863V36.6863C204.707 36.8863 204.707 37.0863 204.607 37.2863C204.507 37.3863 204.407 37.5863 204.407 37.6863C204.307 37.7863 204.307 37.8863 204.207 37.9863C204.007 38.2863 203.707 38.4863 203.407 38.7863C203.307 38.8863 203.207 38.9863 203.107 39.0863L202.707 39.3863C202.507 39.4863 202.307 39.5863 202.107 39.6863L202.007 39.7863C201.707 39.8863 201.507 39.9863 201.207 40.0863H201.107C200.807 40.1863 200.607 40.2863 200.307 40.2863H200.007C199.707 40.3863 199.407 40.3863 199.207 40.3863H199.007C198.707 40.3863 198.507 40.3863 198.207 40.3863H198.007C197.707 40.3863 197.407 40.3863 197.107 40.2863C196.207 40.1863 195.407 39.6863 195.007 38.8863L195.807 41.2863C196.207 42.1863 197.007 42.7863 198.007 42.7863C198.307 42.8863 198.507 42.8863 198.807 42.8863H199.507H199.807H199.907H200.007L200.507 42.7863H200.707H200.807H201.007C201.207 42.7863 201.307 42.6863 201.507 42.5863H201.607H201.707L201.907 42.4863L202.407 42.2863H202.507L202.607 42.1863L203.007 41.9863C203.107 41.9863 203.107 41.8863 203.207 41.8863C203.407 41.7863 203.507 41.6863 203.607 41.5863L203.807 41.3863L203.907 41.2863C204.207 41.0863 204.507 40.7863 204.707 40.4863V40.3863C204.807 40.2863 204.807 40.1863 204.907 40.0863C205.007 39.9863 205.107 39.8863 205.207 39.6863C205.307 39.5863 205.307 39.3863 205.407 39.2863V39.1863V39.0863C205.407 38.9863 205.407 38.9863 205.507 38.8863C205.507 38.7863 205.507 38.6863 205.507 38.5863V38.4863C205.507 38.3863 205.507 38.3863 205.507 38.2863C205.507 38.1863 205.507 38.0863 205.407 37.9863L204.607 35.5863C204.807 35.8863 204.907 35.8863 204.907 35.9863Z" fill="url(#paint15_linear)"/>
<path d="M126.807 55.1863C137.407 57.1863 140.307 65.3863 133.307 73.5863C126.307 81.7863 112.107 86.6863 101.507 84.6863C90.907 82.6863 88.007 74.3863 95.007 66.2863C102.007 58.1863 116.207 53.0863 126.807 55.1863Z" fill="url(#paint16_linear)"/>
<path d="M122.807 59.8863C130.007 61.2863 132.007 66.7863 127.207 72.2863C122.407 77.7863 112.807 81.1863 105.707 79.7863C98.6073 78.3863 96.6073 72.8863 101.307 67.3863C106.007 61.8863 115.607 58.4863 122.807 59.8863Z" fill="#4C68EF"/>
<path d="M116.807 66.7863C119.007 67.1863 119.607 68.8863 118.207 70.5863C116.507 72.3863 114.007 73.1863 111.607 72.8863C109.407 72.4863 108.807 70.7863 110.307 69.0863C111.907 67.2863 114.407 66.4863 116.807 66.7863Z" fill="white"/>
<path d="M110.307 3.0863C109.607 2.9863 108.907 2.8863 108.207 2.7863C108.007 2.7863 107.707 2.7863 107.507 2.6863C107.107 2.6863 106.707 2.5863 106.207 2.5863H105.507C104.907 2.5863 104.407 2.5863 103.807 2.5863H103.207H102.807C102.607 2.5863 102.307 2.5863 102.107 2.6863C101.507 2.6863 101.007 2.7863 100.407 2.8863H100.007L99.5069 2.9863L98.1069 3.1863L97.5069 3.2863L97.0069 3.3863C96.6069 3.4863 96.2069 3.5863 95.7069 3.6863L95.1069 3.7863L94.5069 3.9863L93.2069 4.3863C93.0069 4.4863 92.8069 4.4863 92.6069 4.5863L92.1069 4.7863C91.7069 4.8863 91.2069 5.0863 90.8069 5.2863L90.1069 5.4863L89.7069 5.6863C89.1069 5.8863 88.6069 6.0863 88.1069 6.3863L87.4069 6.6863C87.3069 6.6863 87.2069 6.7863 87.1069 6.8863L86.7069 6.9863C86.1069 7.2863 85.6069 7.4863 85.1069 7.7863L84.7069 7.9863L84.5069 8.0863C84.3069 8.1863 84.0069 8.3863 83.8069 8.4863C83.4069 8.6863 83.0069 8.9863 82.5069 9.2863C82.0069 9.5863 81.9069 9.6863 81.6069 9.8863C81.3069 10.0863 80.8069 10.3863 80.5069 10.6863C80.4069 10.7863 80.3069 10.7863 80.3069 10.8863C79.9069 11.1863 79.4069 11.5863 79.0069 11.8863L78.8069 12.0863C78.3069 12.4863 77.9069 12.8863 77.5069 13.2863L77.1069 13.6863C76.6069 14.1863 76.2069 14.5863 75.8069 15.0863L75.6069 15.3863C75.3069 15.7863 74.9069 16.1863 74.6069 16.6863L74.4069 16.8863C74.1069 17.3863 73.8069 17.8863 73.5069 18.2863L73.4069 18.4863C73.4069 18.5863 73.3069 18.6863 73.2069 18.7863C73.0069 19.1863 72.8069 19.5863 72.6069 19.9863C72.6069 20.0863 72.5069 20.1863 72.5069 20.1863C72.4069 20.3863 72.3069 20.6863 72.2069 20.8863C72.1069 21.0863 72.1069 21.2863 72.0069 21.4863V21.6863C71.9069 22.0863 71.8069 22.3863 71.8069 22.6863C71.8069 22.7863 71.8069 22.8863 71.7069 22.9863V23.1863C71.7069 23.5863 71.6069 23.8863 71.6069 24.2863C71.6069 24.7863 71.6069 25.2863 71.7069 25.7863C71.7069 26.0863 71.8069 26.3863 71.9069 26.6863C71.9069 26.7863 71.9069 26.7863 72.0069 26.8863C72.0069 26.9863 72.1069 27.1863 72.1069 27.2863L72.2069 27.4863C72.2069 27.4863 72.2069 27.4863 72.2069 27.5863L73.6069 31.5863C73.5069 31.2863 73.4069 30.8863 73.3069 30.5863C73.3069 30.5863 73.3069 30.5863 73.3069 30.4863C73.2069 30.1863 73.2069 29.9863 73.1069 29.6863V29.5863C73.0069 28.8863 73.0069 28.1863 73.1069 27.4863C73.1069 27.3863 73.1069 27.3863 73.1069 27.2863C73.2069 26.7863 73.3069 26.3863 73.4069 25.8863L73.5069 25.6863C73.6069 25.2863 73.8069 24.7863 73.9069 24.3863C74.0069 24.2863 74.0069 24.1863 74.1069 24.0863C74.3069 23.5863 74.5069 23.0863 74.8069 22.5863L74.9069 22.3863C75.2069 21.8863 75.5069 21.3863 75.8069 20.9863L76.0069 20.7863C76.4069 20.2863 76.8069 19.7863 77.2069 19.2863C77.6069 18.7863 78.1069 18.2863 78.5069 17.8863L78.9069 17.4863C79.3069 17.0863 79.8069 16.6863 80.2069 16.2863L80.4069 16.0863C80.9069 15.6863 81.4069 15.2863 82.0069 14.8863C82.4069 14.5863 82.8069 14.3863 83.1069 14.0863L84.0069 13.4863C84.4069 13.1863 84.8069 12.9863 85.2069 12.6863C85.6069 12.3863 85.8069 12.2863 86.1069 12.1863L86.5069 11.9863C87.0069 11.6863 87.6069 11.3863 88.1069 11.1863L88.6069 10.9863C88.9069 10.8863 89.2069 10.6863 89.6069 10.5863C90.1069 10.3863 90.7069 10.0863 91.2069 9.8863L92.2069 9.4863L93.5069 8.9863L94.6069 8.5863C95.0069 8.4863 95.4069 8.3863 95.9069 8.1863C96.3069 8.0863 96.7069 7.9863 97.1069 7.8863L98.4069 7.5863L99.6069 7.3863L101.007 7.1863L102.107 6.9863C102.707 6.8863 103.207 6.8863 103.807 6.7863L104.907 6.6863H105.507C106.107 6.6863 106.607 6.6863 107.207 6.6863H107.707C108.207 6.6863 108.707 6.7863 109.207 6.7863C109.407 6.7863 109.707 6.7863 109.907 6.8863C110.607 6.9863 111.307 7.0863 112.007 7.1863C117.807 8.2863 121.507 11.0863 122.707 14.7863L121.307 10.7863C119.807 7.0863 116.107 4.1863 110.307 3.0863Z" fill="#4C68EF"/>
<path d="M111.407 4.48629C123.307 6.78629 126.507 15.9863 118.707 25.0863C110.907 34.1863 94.907 39.6863 83.007 37.4863C71.107 35.2863 67.907 25.9863 75.707 16.8863C83.507 7.78629 99.507 2.18629 111.407 4.48629Z" fill="url(#paint17_linear)"/>
<path d="M116.407 11.8863C116.507 12.2863 116.007 12.6863 115.407 12.8863C115.207 12.9863 114.907 12.9863 114.707 12.9863C114.507 12.9863 114.307 12.7863 114.207 12.5863C113.807 10.2863 111.607 8.58631 108.407 7.98631C104.707 7.38631 100.907 7.88631 97.4073 9.38631C97.1073 9.48631 96.8073 9.58631 96.5073 9.48631C96.3073 9.48631 96.1073 9.38631 96.1073 9.18631C95.9073 8.88631 96.3073 8.38631 96.8073 8.18631C100.807 6.48631 105.307 5.88631 109.607 6.58631C113.407 7.18631 115.907 9.18631 116.407 11.8863Z" fill="#4C68EF"/>
<path d="M104.807 12.0863C106.407 12.3863 107.507 13.2863 107.707 14.3863C107.807 14.7863 107.307 15.1863 106.707 15.3863C106.507 15.4863 106.207 15.4863 106.007 15.4863C105.807 15.4863 105.607 15.2863 105.507 15.0863C105.207 14.1863 104.507 13.5863 103.607 13.5863C102.407 13.3863 101.107 13.5863 100.007 13.9863C99.7069 14.0863 99.4069 14.1863 99.1069 14.0863C98.9069 14.0863 98.7069 13.9863 98.7069 13.7863C98.5069 13.4863 98.9069 12.9863 99.4069 12.7863C101.007 12.0863 102.907 11.7863 104.807 12.0863Z" fill="#4C68EF"/>
<path d="M107.207 9.28632C109.907 9.78632 111.707 11.1863 112.007 13.0863C112.107 13.4863 111.607 13.8863 111.007 14.0863C110.807 14.1863 110.507 14.1863 110.307 14.0863C110.107 14.0863 109.907 13.8863 109.807 13.6863C109.507 12.1863 108.107 10.9863 105.907 10.5863C103.407 10.1863 100.907 10.4863 98.607 11.4863C98.307 11.5863 98.007 11.6863 97.707 11.5863C97.507 11.5863 97.407 11.4863 97.307 11.2863C97.107 10.9863 97.507 10.4863 98.007 10.2863C100.907 9.18632 104.107 8.78632 107.207 9.28632Z" fill="#4C68EF"/>
<path d="M84.7068 30.8863C82.0068 30.3863 80.2068 28.9863 79.9068 26.9863C79.8068 26.5863 80.3068 26.1863 80.9068 25.9863C81.1068 25.8863 81.4068 25.8863 81.6068 25.9863C81.8068 25.9863 82.0068 26.1863 82.1068 26.3863C82.4068 27.8863 83.8068 29.0863 86.0068 29.4863C83.7068 28.9863 94.5069 28.0863 93.3069 28.5863C93.6069 28.4863 93.9068 28.3863 94.2068 28.4863C94.4068 28.4863 94.5068 28.5863 94.6068 28.7863C94.8068 29.0863 94.4068 29.5863 93.9068 29.7863C91.0068 30.8863 87.8068 31.2863 84.7068 30.8863Z" fill="#4C68EF"/>
<path d="M95.8069 30.9863C96.0069 31.2863 95.6069 31.7863 95.1069 31.9863C94.5069 32.1863 81.5069 33.4863 82.3069 33.5863C78.5069 32.9863 76.0069 30.9863 75.5069 28.2863C75.4069 27.8863 75.8069 27.4863 76.5069 27.2863C76.7069 27.1863 77.0069 27.1863 77.2069 27.2863C77.4069 27.2863 77.6069 27.4863 77.7069 27.6863C78.1069 29.9863 80.3069 31.6863 83.5069 32.2863C87.2069 32.8863 91.0069 32.3863 94.5069 30.8863C94.8069 30.7863 95.1069 30.6863 95.4069 30.7863C95.6069 30.7863 95.8069 30.8863 95.8069 30.9863Z" fill="#4C68EF"/>
<path d="M87.1071 28.0863C85.5071 27.7863 84.4071 26.9863 84.2071 25.7863C84.1071 25.3863 84.6071 24.9863 85.2071 24.7863C85.4071 24.6863 85.7071 24.6863 85.9071 24.7863C86.1071 24.7863 86.3071 24.9863 86.4071 25.1863C86.7071 26.0863 87.4071 26.6863 88.3071 26.6863C84.8071 26.0863 94.4071 25.2863 91.9071 26.2863C92.2071 26.1863 92.5071 26.0863 92.8071 26.1863C93.0071 26.1863 93.1071 26.2863 93.2071 26.4863C93.4071 26.7863 93.0071 27.2863 92.5071 27.4863C90.9071 28.0863 89.0071 28.2863 87.1071 28.0863Z" fill="#4C68EF"/>
<path d="M72.0068 27.3863L73.4068 31.3863C73.4068 31.4863 73.4068 31.4863 73.5068 31.5863L72.1068 27.5863C72.1068 27.4863 72.1068 27.3863 72.0068 27.3863Z" fill="#163F79"/>
<path d="M125.007 9.38629L126.407 13.3863L126.507 13.5863L125.107 9.58629C125.107 9.48629 125.107 9.48629 125.007 9.38629Z" fill="#163F79"/>
<path d="M125.107 9.5863L126.507 13.5863C126.707 14.1863 126.807 14.6863 126.907 15.2863L125.507 11.2863C125.407 10.6863 125.307 10.1863 125.107 9.5863Z" fill="#17417D"/>
<path d="M125.507 11.2863L126.907 15.2863C127.007 15.8863 127.007 16.4863 127.007 17.0863L125.607 13.0863C125.607 12.4863 125.507 11.8863 125.507 11.2863Z" fill="#184482"/>
<path d="M125.007 9.38629C125.407 10.6863 125.607 11.9863 125.507 13.2863C125.507 13.4863 125.507 13.5863 125.507 13.7863C125.507 13.8863 125.507 14.0863 125.507 14.1863C125.507 14.2863 125.507 14.4863 125.407 14.6863C125.307 14.8863 125.307 14.9863 125.307 15.0863C125.307 15.1863 125.207 15.4863 125.207 15.6863L125.107 16.0863C125.007 16.2863 125.007 16.5863 124.907 16.7863L124.807 17.0863C124.707 17.4863 124.507 17.8863 124.407 18.1863C124.407 18.2863 124.307 18.3863 124.307 18.4863C124.207 18.7863 124.007 19.0863 123.907 19.3863L123.707 19.7863L123.407 20.2863L123.107 20.7863C123.007 20.9863 122.907 21.0863 122.807 21.2863C122.707 21.4863 122.607 21.5863 122.507 21.7863L122.107 22.2863L121.807 22.7863L121.407 23.2863L120.907 23.8863C120.407 24.4863 119.907 24.9863 119.307 25.5863C119.107 25.6863 119.007 25.8863 118.907 25.9863C118.407 26.4863 117.907 26.9863 117.307 27.3863L117.107 27.5863C116.507 28.0863 115.907 28.5863 115.307 28.9863C114.907 29.2863 114.407 29.5863 114.007 29.8863C113.607 30.1863 113.307 30.3863 113.007 30.5863L111.607 31.4863C111.207 31.6863 110.907 31.8863 110.507 32.0863L110.007 32.2863C109.407 32.5863 108.807 32.9863 108.107 33.2863L107.507 33.5863L106.407 34.0863C105.807 34.3863 105.207 34.5863 104.507 34.8863L103.307 35.3863L101.707 35.8863L100.407 36.2863L99.0069 36.5863L97.6069 36.9863L96.1069 37.2863L94.8069 37.5863C94.3069 37.6863 93.7069 37.7863 93.2069 37.8863L91.9069 37.9863C91.3069 38.0863 90.6069 38.0863 90.0069 38.1863L88.8069 38.2863H88.1069C87.4069 38.2863 86.8069 38.2863 86.2069 38.2863H85.6069C85.0069 38.2863 84.4069 38.1863 83.9069 38.1863L83.1069 38.0863C82.3069 37.9863 81.4069 37.8863 80.6069 37.6863C77.3069 37.1863 74.2069 35.7863 71.6069 33.7863C70.0069 32.4863 68.8069 30.7863 68.1069 28.8863L69.5069 32.8863C71.0069 37.0863 75.3069 40.3863 82.0069 41.6863C82.8069 41.8863 83.6069 41.9863 84.5069 42.0863C84.8069 42.0863 85.1069 42.0863 85.3069 42.1863C85.8069 42.1863 86.3069 42.2863 86.8069 42.2863H87.6069C88.2069 42.2863 88.9069 42.2863 89.5069 42.2863H90.2069H90.6069C90.9069 42.2863 91.1069 42.2863 91.4069 42.1863L93.3069 41.9863C93.5069 41.9863 93.6069 41.9863 93.8069 41.9863L94.6069 41.8863C95.1069 41.7863 95.7069 41.6863 96.2069 41.5863L96.8069 41.4863L97.5069 41.2863C98.0069 41.1863 98.5069 41.0863 99.0069 40.9863L99.7069 40.7863L100.307 40.5863C100.807 40.4863 101.307 40.2863 101.807 40.1863L102.507 39.9863L103.107 39.7863C103.607 39.5863 104.107 39.4863 104.707 39.2863L105.507 38.9863L105.907 38.7863C106.507 38.5863 107.107 38.2863 107.807 37.9863L108.607 37.6863L108.907 37.4863L109.507 37.1863C110.107 36.8863 110.807 36.5863 111.407 36.1863L111.807 35.9863L112.007 35.8863L112.807 35.3863C113.307 35.0863 113.807 34.7863 114.207 34.4863C114.607 34.1863 114.907 33.9863 115.207 33.7863C115.507 33.5863 116.107 33.1863 116.507 32.8863L116.807 32.6863C117.307 32.2863 117.807 31.8863 118.307 31.4863L118.507 31.2863C119.007 30.7863 119.607 30.3863 120.107 29.8863C120.307 29.7863 120.407 29.5863 120.507 29.4863C121.107 28.9863 121.607 28.3863 122.107 27.7863L122.407 27.4863C122.507 27.3863 122.607 27.2863 122.607 27.1863L123.007 26.6863L123.307 26.1863C123.407 25.9863 123.507 25.8863 123.707 25.6863L124.007 25.1863C124.107 24.9863 124.207 24.8863 124.307 24.6863C124.407 24.4863 124.507 24.3863 124.607 24.1863L124.907 23.6863L125.007 23.4863L125.107 23.2863C125.207 22.9863 125.407 22.6863 125.507 22.3863L125.607 22.0863C125.807 21.6863 125.907 21.2863 126.007 20.9863C126.007 20.9863 126.007 20.7863 126.107 20.7863C126.207 20.7863 126.307 20.2863 126.307 20.0863L126.407 19.6863C126.407 19.4863 126.507 19.2863 126.507 19.0863C126.507 19.0863 126.507 18.9863 126.507 18.8863V18.6863C126.507 18.4863 126.507 18.3863 126.607 18.1863C126.707 17.9863 126.607 17.8863 126.607 17.7863V17.2863C126.607 17.1863 126.607 17.1863 126.607 17.0863C126.607 15.8863 126.507 14.5863 126.007 13.3863L125.007 9.38629Z" fill="url(#paint18_linear)"/>
<path d="M112.607 0.586291C125.907 3.18629 129.607 13.5863 120.807 23.7863C112.007 33.9863 94.0071 40.2863 80.6071 37.6863C67.2071 35.0863 63.6071 24.6863 72.4071 14.4863C81.2071 4.28629 99.2071 -2.01371 112.607 0.586291ZM82.8071 35.1863C94.3071 37.3863 109.807 31.9863 117.407 23.1863C125.007 14.3863 121.807 5.38629 110.307 3.18629C98.8071 0.986291 83.3071 6.38629 75.7071 15.1863C68.1071 23.9863 71.3071 32.9863 82.8071 35.1863Z" fill="url(#paint19_linear)"/>
<path d="M101.507 17.7863C101.507 17.9863 101.507 18.1863 101.407 18.3863V18.4863C101.307 18.6863 101.307 18.8863 101.207 19.0863C101.107 19.1863 101.007 19.3863 100.907 19.4863C100.807 19.5863 100.807 19.6863 100.707 19.7863C100.407 20.0863 100.207 20.2863 99.907 20.5863L99.607 20.7863C99.407 20.8863 99.307 20.9863 99.207 21.0863C99.107 21.1863 98.807 21.2863 98.607 21.3863L98.507 21.4863C98.207 21.5863 98.007 21.6863 97.707 21.7863H97.607C97.307 21.8863 97.107 21.9863 96.807 21.9863H96.707C96.407 22.0863 96.107 22.0863 95.907 22.0863H95.707C95.507 22.0863 95.207 22.0863 94.907 22.0863H94.807C94.507 22.0863 94.207 22.0863 93.907 21.9863C93.007 21.8863 92.107 21.2863 91.707 20.4863L92.507 22.8863C92.907 23.7863 93.707 24.2863 94.607 24.3863C94.907 24.4863 95.207 24.4863 95.407 24.4863H96.107H96.407H96.707C96.907 24.4863 97.007 24.4863 97.207 24.3863H97.407H97.507H97.707L98.207 24.2863L98.407 24.1863H98.507L98.707 24.0863L99.207 23.8863H99.307L99.407 23.7863L99.807 23.5863L100.007 23.4863C100.207 23.3863 100.307 23.2863 100.407 23.1863L100.607 23.0863L100.707 22.9863C101.007 22.7863 101.307 22.4863 101.507 22.1863C101.607 22.0863 101.607 21.9863 101.707 21.8863C101.807 21.7863 101.907 21.6863 101.907 21.4863C102.007 21.3863 102.007 21.1863 102.107 21.0863V20.9863C102.107 20.8863 102.107 20.8863 102.107 20.7863C102.107 20.6863 102.107 20.5863 102.107 20.4863C102.107 20.3863 102.107 20.4863 102.107 20.4863V20.3863C102.107 20.2863 102.107 20.2863 102.107 20.1863C102.107 20.0863 102.107 19.9863 102.007 19.8863L101.207 17.4863C101.407 17.5863 101.407 17.6863 101.507 17.7863Z" fill="url(#paint20_linear)"/>
<path d="M99.3073 15.7863C101.607 16.1863 102.207 17.9863 100.707 19.7863C98.9073 21.6863 96.3073 22.5863 93.8073 22.1863C91.5073 21.7863 90.9073 19.9863 92.4073 18.1863C94.1073 16.2863 96.7073 15.3863 99.3073 15.7863Z" fill="url(#paint21_linear)"/>
<defs>
<linearGradient id="paint0_linear" x1="240.851" y1="242.277" x2="131.733" y2="65.9332" gradientUnits="userSpaceOnUse">
<stop stop-color="#4C68EF" stop-opacity="0"/>
<stop offset="0.11" stop-color="#4C68EF" stop-opacity="0.02"/>
<stop offset="0.24" stop-color="#4C68EF" stop-opacity="0.08"/>
<stop offset="0.38" stop-color="#4C68EF" stop-opacity="0.17"/>
<stop offset="0.52" stop-color="#4C68EF" stop-opacity="0.3"/>
<stop offset="0.66" stop-color="#4C68EF" stop-opacity="0.48"/>
<stop offset="0.81" stop-color="#4C68EF" stop-opacity="0.69"/>
<stop offset="0.96" stop-color="#4C68EF" stop-opacity="0.93"/>
<stop offset="1" stop-color="#4C68EF"/>
</linearGradient>
<linearGradient id="paint1_linear" x1="28.9269" y1="132.267" x2="220.387" y2="75.5559" gradientUnits="userSpaceOnUse">
<stop stop-color="#CEDDFE"/>
<stop offset="0.44" stop-color="#CBDAFC"/>
<stop offset="0.71" stop-color="#C3D2F6"/>
<stop offset="0.93" stop-color="#B5C4EB"/>
<stop offset="1" stop-color="#AEBDE6"/>
</linearGradient>
<linearGradient id="paint2_linear" x1="18.8308" y1="98.6776" x2="209.798" y2="42.1123" gradientUnits="userSpaceOnUse">
<stop stop-color="#F4F9FF"/>
<stop offset="0.54" stop-color="#F2F8FE"/>
<stop offset="0.73" stop-color="#EBF2FD"/>
<stop offset="0.87" stop-color="#E0E9F9"/>
<stop offset="0.98" stop-color="#CFDCF4"/>
<stop offset="1" stop-color="#CAD8F3"/>
</linearGradient>
<linearGradient id="paint3_linear" x1="3.73114" y1="100.448" x2="55.51" y2="98.8655" gradientUnits="userSpaceOnUse">
<stop stop-color="#4C68EF"/>
<stop offset="0.11" stop-color="#4C68EF" stop-opacity="0.98"/>
<stop offset="0.24" stop-color="#4C68EF" stop-opacity="0.92"/>
<stop offset="0.38" stop-color="#4C68EF" stop-opacity="0.83"/>
<stop offset="0.52" stop-color="#4C68EF" stop-opacity="0.7"/>
<stop offset="0.66" stop-color="#4C68EF" stop-opacity="0.52"/>
<stop offset="0.81" stop-color="#4C68EF" stop-opacity="0.31"/>
<stop offset="0.96" stop-color="#4C68EF" stop-opacity="0.07"/>
<stop offset="1" stop-color="#4C68EF" stop-opacity="0"/>
</linearGradient>
<linearGradient id="paint4_linear" x1="3.14754" y1="116.109" x2="60.9152" y2="98.9978" gradientUnits="userSpaceOnUse">
<stop stop-color="#CEDDFE"/>
<stop offset="0.44" stop-color="#CBDAFC"/>
<stop offset="0.71" stop-color="#C3D2F6"/>
<stop offset="0.93" stop-color="#B5C4EB"/>
<stop offset="1" stop-color="#AEBDE6"/>
</linearGradient>
<linearGradient id="paint5_linear" x1="0.175808" y1="106.338" x2="57.8002" y2="89.2693" gradientUnits="userSpaceOnUse">
<stop stop-color="#F4F9FF"/>
<stop offset="0.54" stop-color="#F2F8FE"/>
<stop offset="0.73" stop-color="#EBF2FD"/>
<stop offset="0.87" stop-color="#E0E9F9"/>
<stop offset="0.98" stop-color="#CFDCF4"/>
<stop offset="1" stop-color="#CAD8F3"/>
</linearGradient>
<linearGradient id="paint6_linear" x1="24.7643" y1="101.732" x2="34.8028" y2="98.7583" gradientUnits="userSpaceOnUse">
<stop stop-color="#F4F9FF"/>
<stop offset="0.54" stop-color="#F2F8FE"/>
<stop offset="0.73" stop-color="#EBF2FD"/>
<stop offset="0.87" stop-color="#E0E9F9"/>
<stop offset="0.98" stop-color="#CFDCF4"/>
<stop offset="1" stop-color="#CAD8F3"/>
</linearGradient>
<linearGradient id="paint7_linear" x1="23.9799" y1="99.0827" x2="33.9157" y2="96.1397" gradientUnits="userSpaceOnUse">
<stop stop-color="#F4F9FF"/>
<stop offset="0.54" stop-color="#F2F8FE"/>
<stop offset="0.73" stop-color="#EBF2FD"/>
<stop offset="0.87" stop-color="#E0E9F9"/>
<stop offset="0.98" stop-color="#CFDCF4"/>
<stop offset="1" stop-color="#CAD8F3"/>
</linearGradient>
<linearGradient id="paint8_linear" x1="105.075" y1="119.011" x2="156.852" y2="117.429" gradientUnits="userSpaceOnUse">
<stop stop-color="#4C68EF"/>
<stop offset="0.11" stop-color="#4C68EF" stop-opacity="0.98"/>
<stop offset="0.24" stop-color="#4C68EF" stop-opacity="0.92"/>
<stop offset="0.38" stop-color="#4C68EF" stop-opacity="0.83"/>
<stop offset="0.52" stop-color="#4C68EF" stop-opacity="0.7"/>
<stop offset="0.66" stop-color="#4C68EF" stop-opacity="0.52"/>
<stop offset="0.81" stop-color="#4C68EF" stop-opacity="0.31"/>
<stop offset="0.96" stop-color="#4C68EF" stop-opacity="0.07"/>
<stop offset="1" stop-color="#4C68EF" stop-opacity="0"/>
</linearGradient>
<linearGradient id="paint9_linear" x1="104.413" y1="134.689" x2="162.18" y2="117.578" gradientUnits="userSpaceOnUse">
<stop stop-color="#CEDDFE"/>
<stop offset="0.44" stop-color="#CBDAFC"/>
<stop offset="0.71" stop-color="#C3D2F6"/>
<stop offset="0.93" stop-color="#B5C4EB"/>
<stop offset="1" stop-color="#AEBDE6"/>
</linearGradient>
<linearGradient id="paint10_linear" x1="126.091" y1="120.239" x2="136.13" y2="117.265" gradientUnits="userSpaceOnUse">
<stop stop-color="#F4F9FF"/>
<stop offset="0.54" stop-color="#F2F8FE"/>
<stop offset="0.73" stop-color="#EBF2FD"/>
<stop offset="0.87" stop-color="#E0E9F9"/>
<stop offset="0.98" stop-color="#CFDCF4"/>
<stop offset="1" stop-color="#CAD8F3"/>
</linearGradient>
<linearGradient id="paint11_linear" x1="125.317" y1="117.628" x2="135.248" y2="114.686" gradientUnits="userSpaceOnUse">
<stop stop-color="#F4F9FF"/>
<stop offset="0.54" stop-color="#F2F8FE"/>
<stop offset="0.73" stop-color="#EBF2FD"/>
<stop offset="0.87" stop-color="#E0E9F9"/>
<stop offset="0.98" stop-color="#CFDCF4"/>
<stop offset="1" stop-color="#CAD8F3"/>
</linearGradient>
<linearGradient id="paint12_linear" x1="174.727" y1="39.9837" x2="226.51" y2="38.4015" gradientUnits="userSpaceOnUse">
<stop stop-color="#4C68EF"/>
<stop offset="0.11" stop-color="#4C68EF" stop-opacity="0.98"/>
<stop offset="0.24" stop-color="#4C68EF" stop-opacity="0.92"/>
<stop offset="0.38" stop-color="#4C68EF" stop-opacity="0.83"/>
<stop offset="0.52" stop-color="#4C68EF" stop-opacity="0.7"/>
<stop offset="0.66" stop-color="#4C68EF" stop-opacity="0.52"/>
<stop offset="0.81" stop-color="#4C68EF" stop-opacity="0.31"/>
<stop offset="0.96" stop-color="#4C68EF" stop-opacity="0.07"/>
<stop offset="1" stop-color="#4C68EF" stop-opacity="0"/>
</linearGradient>
<linearGradient id="paint13_linear" x1="174.057" y1="55.6132" x2="231.834" y2="38.4994" gradientUnits="userSpaceOnUse">
<stop stop-color="#CEDDFE"/>
<stop offset="0.44" stop-color="#CBDAFC"/>
<stop offset="0.71" stop-color="#C3D2F6"/>
<stop offset="0.93" stop-color="#B5C4EB"/>
<stop offset="1" stop-color="#AEBDE6"/>
</linearGradient>
<linearGradient id="paint14_linear" x1="171.187" y1="45.8564" x2="228.799" y2="28.7914" gradientUnits="userSpaceOnUse">
<stop stop-color="#F4F9FF"/>
<stop offset="0.54" stop-color="#F2F8FE"/>
<stop offset="0.73" stop-color="#EBF2FD"/>
<stop offset="0.87" stop-color="#E0E9F9"/>
<stop offset="0.98" stop-color="#CFDCF4"/>
<stop offset="1" stop-color="#CAD8F3"/>
</linearGradient>
<linearGradient id="paint15_linear" x1="195.807" y1="41.395" x2="205.846" y2="38.4215" gradientUnits="userSpaceOnUse">
<stop stop-color="#F4F9FF"/>
<stop offset="0.54" stop-color="#F2F8FE"/>
<stop offset="0.73" stop-color="#EBF2FD"/>
<stop offset="0.87" stop-color="#E0E9F9"/>
<stop offset="0.98" stop-color="#CFDCF4"/>
<stop offset="1" stop-color="#CAD8F3"/>
</linearGradient>
<linearGradient id="paint16_linear" x1="91.3754" y1="76.6187" x2="137.009" y2="63.1017" gradientUnits="userSpaceOnUse">
<stop stop-color="#00366A"/>
<stop offset="1" stop-color="#050046"/>
</linearGradient>
<linearGradient id="paint17_linear" x1="71.3063" y1="21.7795" x2="123.097" y2="20.1972" gradientUnits="userSpaceOnUse">
<stop stop-color="#4C68EF" stop-opacity="0"/>
<stop offset="0.11" stop-color="#4C68EF" stop-opacity="0.02"/>
<stop offset="0.24" stop-color="#4C68EF" stop-opacity="0.08"/>
<stop offset="0.38" stop-color="#4C68EF" stop-opacity="0.17"/>
<stop offset="0.52" stop-color="#4C68EF" stop-opacity="0.3"/>
<stop offset="0.66" stop-color="#4C68EF" stop-opacity="0.48"/>
<stop offset="0.81" stop-color="#4C68EF" stop-opacity="0.69"/>
<stop offset="0.96" stop-color="#4C68EF" stop-opacity="0.93"/>
<stop offset="1" stop-color="#4C68EF"/>
</linearGradient>
<linearGradient id="paint18_linear" x1="70.687" y1="37.4137" x2="128.464" y2="20.2998" gradientUnits="userSpaceOnUse">
<stop stop-color="#CEDDFE"/>
<stop offset="0.44" stop-color="#CBDAFC"/>
<stop offset="0.71" stop-color="#C3D2F6"/>
<stop offset="0.93" stop-color="#B5C4EB"/>
<stop offset="1" stop-color="#AEBDE6"/>
</linearGradient>
<linearGradient id="paint19_linear" x1="67.7718" y1="27.6608" x2="125.351" y2="10.6057" gradientUnits="userSpaceOnUse">
<stop stop-color="#F4F9FF"/>
<stop offset="0.54" stop-color="#F2F8FE"/>
<stop offset="0.73" stop-color="#EBF2FD"/>
<stop offset="0.87" stop-color="#E0E9F9"/>
<stop offset="0.98" stop-color="#CFDCF4"/>
<stop offset="1" stop-color="#CAD8F3"/>
</linearGradient>
<linearGradient id="paint20_linear" x1="92.3599" y1="23.0861" x2="102.399" y2="20.1126" gradientUnits="userSpaceOnUse">
<stop stop-color="#F4F9FF"/>
<stop offset="0.54" stop-color="#F2F8FE"/>
<stop offset="0.73" stop-color="#EBF2FD"/>
<stop offset="0.87" stop-color="#E0E9F9"/>
<stop offset="0.98" stop-color="#CFDCF4"/>
<stop offset="1" stop-color="#CAD8F3"/>
</linearGradient>
<linearGradient id="paint21_linear" x1="91.5703" y1="20.4198" x2="101.506" y2="17.4768" gradientUnits="userSpaceOnUse">
<stop stop-color="#F4F9FF"/>
<stop offset="0.54" stop-color="#F2F8FE"/>
<stop offset="0.73" stop-color="#EBF2FD"/>
<stop offset="0.87" stop-color="#E0E9F9"/>
<stop offset="0.98" stop-color="#CFDCF4"/>
<stop offset="1" stop-color="#CAD8F3"/>
</linearGradient>
</defs>
</svg>
