<svg width="809" height="297" viewBox="0 0 809 297" fill="none" xmlns="http://www.w3.org/2000/svg">
<g filter="url(#filter0_f_92:5)">
<path d="M255.84 170V125.6H274.62C278.62 125.6 281.74 126.54 283.98 128.42C286.26 130.3 287.84 132.9 288.72 136.22C289.64 139.54 290.1 143.4 290.1 147.8C290.1 155.28 288.82 160.86 286.26 164.54C283.7 168.18 279.82 170 274.62 170H255.84ZM264.72 162.02H273.72C276.48 162.02 278.42 160.82 279.54 158.42C280.66 156.02 281.22 152.48 281.22 147.8C281.22 143.96 280.94 141.02 280.38 138.98C279.82 136.9 278.98 135.48 277.86 134.72C276.78 133.96 275.4 133.58 273.72 133.58H264.72V162.02ZM302.455 170.36C300.015 170.36 298.035 169.64 296.515 168.2C294.995 166.76 294.235 164.76 294.235 162.2V159.32C294.235 156.88 295.095 154.88 296.815 153.32C298.535 151.72 301.215 150.92 304.855 150.92H313.075V148.7C313.075 147.7 312.895 146.88 312.535 146.24C312.215 145.56 311.555 145.08 310.555 144.8C309.555 144.48 308.055 144.32 306.055 144.32H296.395V139.16C297.995 138.68 299.815 138.26 301.855 137.9C303.895 137.54 306.375 137.36 309.295 137.36C311.975 137.36 314.255 137.68 316.135 138.32C318.015 138.96 319.455 140.06 320.455 141.62C321.455 143.18 321.955 145.34 321.955 148.1V170H314.935L313.495 166.58C313.135 166.98 312.415 167.48 311.335 168.08C310.255 168.64 308.935 169.16 307.375 169.64C305.855 170.12 304.215 170.36 302.455 170.36ZM306.955 164.18C307.635 164.18 308.415 164.08 309.295 163.88C310.215 163.64 311.035 163.4 311.755 163.16C312.515 162.88 312.955 162.7 313.075 162.62V155.12L307.675 155.48C304.635 155.72 303.115 157.04 303.115 159.44V160.76C303.115 162.04 303.475 162.94 304.195 163.46C304.955 163.94 305.875 164.18 306.955 164.18ZM340.304 170.36C338.944 170.36 337.464 170.3 335.864 170.18C334.304 170.1 332.804 169.96 331.364 169.76C329.924 169.52 328.744 169.24 327.824 168.92V163.7H342.104C343.344 163.7 344.264 163.54 344.864 163.22C345.464 162.86 345.764 162.14 345.764 161.06V160.04C345.764 159.24 345.504 158.62 344.984 158.18C344.464 157.74 343.504 157.52 342.104 157.52H337.064C335.224 157.52 333.564 157.26 332.084 156.74C330.604 156.18 329.424 155.26 328.544 153.98C327.704 152.7 327.284 150.96 327.284 148.76V146.9C327.284 144.86 327.684 143.14 328.484 141.74C329.284 140.34 330.624 139.28 332.504 138.56C334.384 137.84 336.964 137.48 340.244 137.48C341.564 137.48 342.964 137.56 344.444 137.72C345.964 137.84 347.384 138.02 348.704 138.26C350.064 138.5 351.144 138.74 351.944 138.98V144.2H338.444C337.284 144.2 336.404 144.4 335.804 144.8C335.204 145.16 334.904 145.86 334.904 146.9V147.86C334.904 148.9 335.224 149.58 335.864 149.9C336.504 150.22 337.484 150.38 338.804 150.38H343.964C347.244 150.38 349.624 151.14 351.104 152.66C352.624 154.14 353.384 156.2 353.384 158.84V161.72C353.384 165 352.244 167.26 349.964 168.5C347.724 169.74 344.504 170.36 340.304 170.36ZM358.897 170V124.28H367.777V141.08C368.897 140.12 370.397 139.24 372.277 138.44C374.157 137.64 376.077 137.24 378.037 137.24C380.477 137.24 382.417 137.72 383.857 138.68C385.297 139.64 386.337 140.98 386.977 142.7C387.617 144.42 387.937 146.42 387.937 148.7V170H379.057V149.84C379.057 148.32 378.617 147.18 377.737 146.42C376.897 145.62 375.797 145.22 374.437 145.22C373.157 145.22 371.957 145.46 370.837 145.94C369.757 146.38 368.737 146.94 367.777 147.62V170H358.897ZM412.82 170.36C410.7 170.36 408.9 170.02 407.42 169.34C405.98 168.66 404.66 167.86 403.46 166.94L402.02 170H394.58V124.22H403.46V140C404.74 139.32 406.18 138.7 407.78 138.14C409.42 137.58 410.96 137.3 412.4 137.3C416.52 137.3 419.44 138.62 421.16 141.26C422.92 143.86 423.8 148.18 423.8 154.22C423.8 159.66 422.9 163.72 421.1 166.4C419.34 169.04 416.58 170.36 412.82 170.36ZM409.52 163.1C410.56 163.1 411.48 162.84 412.28 162.32C413.12 161.76 413.76 160.8 414.2 159.44C414.68 158.08 414.92 156.2 414.92 153.8C414.92 151.04 414.66 149 414.14 147.68C413.66 146.36 413 145.5 412.16 145.1C411.32 144.66 410.44 144.44 409.52 144.44C408.32 144.44 407.2 144.64 406.16 145.04C405.12 145.4 404.22 145.8 403.46 146.24V161.54C404.18 161.94 405.04 162.3 406.04 162.62C407.04 162.94 408.2 163.1 409.52 163.1ZM443.478 170.3C439.918 170.3 437.058 169.8 434.898 168.8C432.738 167.76 431.158 166.04 430.158 163.64C429.198 161.24 428.718 157.96 428.718 153.8C428.718 149.4 429.218 146.02 430.218 143.66C431.218 141.26 432.798 139.6 434.958 138.68C437.118 137.76 439.958 137.3 443.478 137.3C447.038 137.3 449.898 137.78 452.058 138.74C454.258 139.7 455.838 141.38 456.798 143.78C457.798 146.18 458.298 149.52 458.298 153.8C458.298 158.08 457.818 161.42 456.858 163.82C455.898 166.22 454.338 167.9 452.178 168.86C450.018 169.82 447.118 170.3 443.478 170.3ZM443.478 163.22C444.878 163.22 446.018 163.02 446.898 162.62C447.778 162.22 448.418 161.36 448.818 160.04C449.218 158.68 449.418 156.6 449.418 153.8C449.418 150.96 449.218 148.88 448.818 147.56C448.418 146.24 447.778 145.38 446.898 144.98C446.018 144.58 444.878 144.38 443.478 144.38C442.078 144.38 440.938 144.58 440.058 144.98C439.218 145.38 438.598 146.24 438.198 147.56C437.798 148.88 437.598 150.96 437.598 153.8C437.598 156.6 437.798 158.68 438.198 160.04C438.598 161.36 439.218 162.22 440.058 162.62C440.938 163.02 442.078 163.22 443.478 163.22ZM471.03 170.36C468.59 170.36 466.61 169.64 465.09 168.2C463.57 166.76 462.81 164.76 462.81 162.2V159.32C462.81 156.88 463.67 154.88 465.39 153.32C467.11 151.72 469.79 150.92 473.43 150.92H481.65V148.7C481.65 147.7 481.47 146.88 481.11 146.24C480.79 145.56 480.13 145.08 479.13 144.8C478.13 144.48 476.63 144.32 474.63 144.32H464.97V139.16C466.57 138.68 468.39 138.26 470.43 137.9C472.47 137.54 474.95 137.36 477.87 137.36C480.55 137.36 482.83 137.68 484.71 138.32C486.59 138.96 488.03 140.06 489.03 141.62C490.03 143.18 490.53 145.34 490.53 148.1V170H483.51L482.07 166.58C481.71 166.98 480.99 167.48 479.91 168.08C478.83 168.64 477.51 169.16 475.95 169.64C474.43 170.12 472.79 170.36 471.03 170.36ZM475.53 164.18C476.21 164.18 476.99 164.08 477.87 163.88C478.79 163.64 479.61 163.4 480.33 163.16C481.09 162.88 481.53 162.7 481.65 162.62V155.12L476.25 155.48C473.21 155.72 471.69 157.04 471.69 159.44V160.76C471.69 162.04 472.05 162.94 472.77 163.46C473.53 163.94 474.45 164.18 475.53 164.18ZM497.178 170V137.78H504.018L506.058 142.7C507.218 141.22 508.518 139.96 509.958 138.92C511.438 137.88 513.178 137.36 515.178 137.36C515.618 137.36 516.058 137.38 516.498 137.42C516.978 137.46 517.418 137.54 517.818 137.66V146.78C517.178 146.7 516.518 146.64 515.838 146.6C515.198 146.52 514.598 146.48 514.038 146.48C512.278 146.48 510.778 146.78 509.538 147.38C508.298 147.94 507.138 148.8 506.058 149.96V170H497.178ZM533.109 170.36C529.309 170.36 526.429 169.14 524.469 166.7C522.549 164.22 521.589 160.06 521.589 154.22C521.589 150.26 521.949 147.04 522.669 144.56C523.429 142.04 524.689 140.2 526.449 139.04C528.209 137.88 530.629 137.3 533.709 137.3C535.149 137.3 536.589 137.46 538.029 137.78C539.509 138.06 540.809 138.4 541.929 138.8V124.22H550.869V170H543.369L541.929 166.94C540.889 167.86 539.549 168.66 537.909 169.34C536.309 170.02 534.709 170.36 533.109 170.36ZM536.229 163.22C537.429 163.22 538.509 163.02 539.469 162.62C540.469 162.22 541.289 161.82 541.929 161.42V145.22C541.169 144.9 540.329 144.62 539.409 144.38C538.529 144.1 537.589 143.96 536.589 143.96C535.109 143.96 533.909 144.22 532.989 144.74C532.109 145.26 531.469 146.24 531.069 147.68C530.669 149.08 530.469 151.12 530.469 153.8C530.469 156.32 530.649 158.26 531.009 159.62C531.409 160.98 532.029 161.92 532.869 162.44C533.709 162.96 534.829 163.22 536.229 163.22Z" fill="white"/>
</g>
<path d="M255.84 170V125.6H274.62C278.62 125.6 281.74 126.54 283.98 128.42C286.26 130.3 287.84 132.9 288.72 136.22C289.64 139.54 290.1 143.4 290.1 147.8C290.1 155.28 288.82 160.86 286.26 164.54C283.7 168.18 279.82 170 274.62 170H255.84ZM264.72 162.02H273.72C276.48 162.02 278.42 160.82 279.54 158.42C280.66 156.02 281.22 152.48 281.22 147.8C281.22 143.96 280.94 141.02 280.38 138.98C279.82 136.9 278.98 135.48 277.86 134.72C276.78 133.96 275.4 133.58 273.72 133.58H264.72V162.02ZM302.455 170.36C300.015 170.36 298.035 169.64 296.515 168.2C294.995 166.76 294.235 164.76 294.235 162.2V159.32C294.235 156.88 295.095 154.88 296.815 153.32C298.535 151.72 301.215 150.92 304.855 150.92H313.075V148.7C313.075 147.7 312.895 146.88 312.535 146.24C312.215 145.56 311.555 145.08 310.555 144.8C309.555 144.48 308.055 144.32 306.055 144.32H296.395V139.16C297.995 138.68 299.815 138.26 301.855 137.9C303.895 137.54 306.375 137.36 309.295 137.36C311.975 137.36 314.255 137.68 316.135 138.32C318.015 138.96 319.455 140.06 320.455 141.62C321.455 143.18 321.955 145.34 321.955 148.1V170H314.935L313.495 166.58C313.135 166.98 312.415 167.48 311.335 168.08C310.255 168.64 308.935 169.16 307.375 169.64C305.855 170.12 304.215 170.36 302.455 170.36ZM306.955 164.18C307.635 164.18 308.415 164.08 309.295 163.88C310.215 163.64 311.035 163.4 311.755 163.16C312.515 162.88 312.955 162.7 313.075 162.62V155.12L307.675 155.48C304.635 155.72 303.115 157.04 303.115 159.44V160.76C303.115 162.04 303.475 162.94 304.195 163.46C304.955 163.94 305.875 164.18 306.955 164.18ZM340.304 170.36C338.944 170.36 337.464 170.3 335.864 170.18C334.304 170.1 332.804 169.96 331.364 169.76C329.924 169.52 328.744 169.24 327.824 168.92V163.7H342.104C343.344 163.7 344.264 163.54 344.864 163.22C345.464 162.86 345.764 162.14 345.764 161.06V160.04C345.764 159.24 345.504 158.62 344.984 158.18C344.464 157.74 343.504 157.52 342.104 157.52H337.064C335.224 157.52 333.564 157.26 332.084 156.74C330.604 156.18 329.424 155.26 328.544 153.98C327.704 152.7 327.284 150.96 327.284 148.76V146.9C327.284 144.86 327.684 143.14 328.484 141.74C329.284 140.34 330.624 139.28 332.504 138.56C334.384 137.84 336.964 137.48 340.244 137.48C341.564 137.48 342.964 137.56 344.444 137.72C345.964 137.84 347.384 138.02 348.704 138.26C350.064 138.5 351.144 138.74 351.944 138.98V144.2H338.444C337.284 144.2 336.404 144.4 335.804 144.8C335.204 145.16 334.904 145.86 334.904 146.9V147.86C334.904 148.9 335.224 149.58 335.864 149.9C336.504 150.22 337.484 150.38 338.804 150.38H343.964C347.244 150.38 349.624 151.14 351.104 152.66C352.624 154.14 353.384 156.2 353.384 158.84V161.72C353.384 165 352.244 167.26 349.964 168.5C347.724 169.74 344.504 170.36 340.304 170.36ZM358.897 170V124.28H367.777V141.08C368.897 140.12 370.397 139.24 372.277 138.44C374.157 137.64 376.077 137.24 378.037 137.24C380.477 137.24 382.417 137.72 383.857 138.68C385.297 139.64 386.337 140.98 386.977 142.7C387.617 144.42 387.937 146.42 387.937 148.7V170H379.057V149.84C379.057 148.32 378.617 147.18 377.737 146.42C376.897 145.62 375.797 145.22 374.437 145.22C373.157 145.22 371.957 145.46 370.837 145.94C369.757 146.38 368.737 146.94 367.777 147.62V170H358.897ZM412.82 170.36C410.7 170.36 408.9 170.02 407.42 169.34C405.98 168.66 404.66 167.86 403.46 166.94L402.02 170H394.58V124.22H403.46V140C404.74 139.32 406.18 138.7 407.78 138.14C409.42 137.58 410.96 137.3 412.4 137.3C416.52 137.3 419.44 138.62 421.16 141.26C422.92 143.86 423.8 148.18 423.8 154.22C423.8 159.66 422.9 163.72 421.1 166.4C419.34 169.04 416.58 170.36 412.82 170.36ZM409.52 163.1C410.56 163.1 411.48 162.84 412.28 162.32C413.12 161.76 413.76 160.8 414.2 159.44C414.68 158.08 414.92 156.2 414.92 153.8C414.92 151.04 414.66 149 414.14 147.68C413.66 146.36 413 145.5 412.16 145.1C411.32 144.66 410.44 144.44 409.52 144.44C408.32 144.44 407.2 144.64 406.16 145.04C405.12 145.4 404.22 145.8 403.46 146.24V161.54C404.18 161.94 405.04 162.3 406.04 162.62C407.04 162.94 408.2 163.1 409.52 163.1ZM443.478 170.3C439.918 170.3 437.058 169.8 434.898 168.8C432.738 167.76 431.158 166.04 430.158 163.64C429.198 161.24 428.718 157.96 428.718 153.8C428.718 149.4 429.218 146.02 430.218 143.66C431.218 141.26 432.798 139.6 434.958 138.68C437.118 137.76 439.958 137.3 443.478 137.3C447.038 137.3 449.898 137.78 452.058 138.74C454.258 139.7 455.838 141.38 456.798 143.78C457.798 146.18 458.298 149.52 458.298 153.8C458.298 158.08 457.818 161.42 456.858 163.82C455.898 166.22 454.338 167.9 452.178 168.86C450.018 169.82 447.118 170.3 443.478 170.3ZM443.478 163.22C444.878 163.22 446.018 163.02 446.898 162.62C447.778 162.22 448.418 161.36 448.818 160.04C449.218 158.68 449.418 156.6 449.418 153.8C449.418 150.96 449.218 148.88 448.818 147.56C448.418 146.24 447.778 145.38 446.898 144.98C446.018 144.58 444.878 144.38 443.478 144.38C442.078 144.38 440.938 144.58 440.058 144.98C439.218 145.38 438.598 146.24 438.198 147.56C437.798 148.88 437.598 150.96 437.598 153.8C437.598 156.6 437.798 158.68 438.198 160.04C438.598 161.36 439.218 162.22 440.058 162.62C440.938 163.02 442.078 163.22 443.478 163.22ZM471.03 170.36C468.59 170.36 466.61 169.64 465.09 168.2C463.57 166.76 462.81 164.76 462.81 162.2V159.32C462.81 156.88 463.67 154.88 465.39 153.32C467.11 151.72 469.79 150.92 473.43 150.92H481.65V148.7C481.65 147.7 481.47 146.88 481.11 146.24C480.79 145.56 480.13 145.08 479.13 144.8C478.13 144.48 476.63 144.32 474.63 144.32H464.97V139.16C466.57 138.68 468.39 138.26 470.43 137.9C472.47 137.54 474.95 137.36 477.87 137.36C480.55 137.36 482.83 137.68 484.71 138.32C486.59 138.96 488.03 140.06 489.03 141.62C490.03 143.18 490.53 145.34 490.53 148.1V170H483.51L482.07 166.58C481.71 166.98 480.99 167.48 479.91 168.08C478.83 168.64 477.51 169.16 475.95 169.64C474.43 170.12 472.79 170.36 471.03 170.36ZM475.53 164.18C476.21 164.18 476.99 164.08 477.87 163.88C478.79 163.64 479.61 163.4 480.33 163.16C481.09 162.88 481.53 162.7 481.65 162.62V155.12L476.25 155.48C473.21 155.72 471.69 157.04 471.69 159.44V160.76C471.69 162.04 472.05 162.94 472.77 163.46C473.53 163.94 474.45 164.18 475.53 164.18ZM497.178 170V137.78H504.018L506.058 142.7C507.218 141.22 508.518 139.96 509.958 138.92C511.438 137.88 513.178 137.36 515.178 137.36C515.618 137.36 516.058 137.38 516.498 137.42C516.978 137.46 517.418 137.54 517.818 137.66V146.78C517.178 146.7 516.518 146.64 515.838 146.6C515.198 146.52 514.598 146.48 514.038 146.48C512.278 146.48 510.778 146.78 509.538 147.38C508.298 147.94 507.138 148.8 506.058 149.96V170H497.178ZM533.109 170.36C529.309 170.36 526.429 169.14 524.469 166.7C522.549 164.22 521.589 160.06 521.589 154.22C521.589 150.26 521.949 147.04 522.669 144.56C523.429 142.04 524.689 140.2 526.449 139.04C528.209 137.88 530.629 137.3 533.709 137.3C535.149 137.3 536.589 137.46 538.029 137.78C539.509 138.06 540.809 138.4 541.929 138.8V124.22H550.869V170H543.369L541.929 166.94C540.889 167.86 539.549 168.66 537.909 169.34C536.309 170.02 534.709 170.36 533.109 170.36ZM536.229 163.22C537.429 163.22 538.509 163.02 539.469 162.62C540.469 162.22 541.289 161.82 541.929 161.42V145.22C541.169 144.9 540.329 144.62 539.409 144.38C538.529 144.1 537.589 143.96 536.589 143.96C535.109 143.96 533.909 144.22 532.989 144.74C532.109 145.26 531.469 146.24 531.069 147.68C530.669 149.08 530.469 151.12 530.469 153.8C530.469 156.32 530.649 158.26 531.009 159.62C531.409 160.98 532.029 161.92 532.869 162.44C533.709 162.96 534.829 163.22 536.229 163.22Z" fill="white"/>
<defs>
<filter id="filter0_f_92:5" x="228.84" y="97.2197" width="349.029" height="100.141" filterUnits="userSpaceOnUse" color-interpolation-filters="sRGB">
<feFlood flood-opacity="0" result="BackgroundImageFix"/>
<feBlend mode="normal" in="SourceGraphic" in2="BackgroundImageFix" result="shape"/>
<feGaussianBlur stdDeviation="13.5" result="effect1_foregroundBlur_92:5"/>
</filter>
</defs>
</svg>
