<svg width="1482" height="380" viewBox="0 0 1482 380" fill="none" xmlns="http://www.w3.org/2000/svg">
<rect width="1482" height="380" fill="url(#paint0_linear)"/>
<path d="M440.797 0H1482V380H155V0H440.797Z" fill="url(#paint1_linear)"/>
<path d="M395.53 228L416.41 161.4H433.24L454.12 228H440.26L436.03 214.05H413.35L409.21 228H395.53ZM416.5 202.08H432.88L424.69 172.83L416.5 202.08ZM458.941 228V179.67H469.201L472.261 187.05C474.001 184.83 475.951 182.94 478.111 181.38C480.331 179.82 482.941 179.04 485.941 179.04C486.601 179.04 487.261 179.07 487.921 179.13C488.641 179.19 489.301 179.31 489.901 179.49V193.17C488.941 193.05 487.951 192.96 486.931 192.9C485.971 192.78 485.071 192.72 484.231 192.72C481.591 192.72 479.341 193.17 477.481 194.07C475.621 194.91 473.881 196.2 472.261 197.94V228H458.941ZM514.437 228C508.857 228 504.837 226.74 502.377 224.22C499.977 221.7 498.867 217.23 499.047 210.81L499.497 190.38H491.937V181.83L499.947 179.67L501.747 166.17H512.277V179.67H523.617V190.38H512.277V210.72C512.277 213.36 512.757 215.13 513.717 216.03C514.677 216.87 515.787 217.38 517.047 217.56L523.167 218.1V228H514.437ZM549.597 228.45C544.257 228.45 539.997 227.76 536.817 226.38C533.637 224.94 531.327 222.45 529.887 218.91C528.507 215.31 527.817 210.3 527.817 203.88C527.817 197.34 528.477 192.27 529.797 188.67C531.117 185.07 533.337 182.55 536.457 181.11C539.577 179.67 543.807 178.95 549.147 178.95C553.887 178.95 557.697 179.43 560.577 180.39C563.517 181.35 565.617 183.03 566.877 185.43C568.197 187.83 568.857 191.22 568.857 195.6C568.857 200.52 567.447 203.91 564.627 205.77C561.807 207.63 557.997 208.56 553.197 208.56H541.047C541.107 211.02 541.467 212.97 542.127 214.41C542.787 215.85 543.957 216.9 545.637 217.56C547.377 218.22 549.867 218.55 553.107 218.55H567.237V226.38C564.897 226.86 562.317 227.34 559.497 227.82C556.737 228.24 553.437 228.45 549.597 228.45ZM540.867 200.64H551.847C553.647 200.64 554.967 200.28 555.807 199.56C556.647 198.78 557.067 197.49 557.067 195.69C557.067 193.05 556.437 191.22 555.177 190.2C553.977 189.12 551.967 188.58 549.147 188.58C546.087 188.58 543.927 189.42 542.667 191.1C541.467 192.72 540.867 195.9 540.867 200.64ZM575.797 228V179.67H586.777L589.117 184.62C591.217 183.06 593.527 181.71 596.047 180.57C598.567 179.43 601.627 178.86 605.227 178.86C608.287 178.86 610.807 179.52 612.787 180.84C614.767 182.1 616.297 183.72 617.377 185.7C618.757 184.68 620.347 183.66 622.147 182.64C624.007 181.56 625.987 180.66 628.087 179.94C630.187 179.22 632.257 178.86 634.297 178.86C638.197 178.86 641.257 179.61 643.477 181.11C645.697 182.55 647.257 184.62 648.157 187.32C649.117 189.96 649.597 193.08 649.597 196.68V228H636.277V197.85C636.277 195.51 635.647 193.77 634.387 192.63C633.127 191.43 631.447 190.83 629.347 190.83C627.547 190.83 625.717 191.22 623.857 192C622.057 192.72 620.437 193.59 618.997 194.61C619.237 195.81 619.357 196.98 619.357 198.12V228H606.037V197.85C606.037 195.51 605.407 193.77 604.147 192.63C602.887 191.43 601.207 190.83 599.107 190.83C597.187 190.83 595.387 191.16 593.707 191.82C592.087 192.48 590.557 193.35 589.117 194.43V228H575.797ZM659.377 172.56C658.117 172.56 657.487 171.96 657.487 170.76V161.94C657.487 160.68 658.117 160.05 659.377 160.05H669.637C670.777 160.05 671.347 160.68 671.347 161.94V170.76C671.347 171.96 670.777 172.56 669.637 172.56H659.377ZM657.757 228V179.67H671.077V228H657.757ZM697.062 228.54C695.022 228.54 692.802 228.45 690.402 228.27C688.062 228.15 685.812 227.94 683.652 227.64C681.492 227.28 679.722 226.86 678.342 226.38V218.55H699.762C701.622 218.55 703.002 218.31 703.902 217.83C704.802 217.29 705.252 216.21 705.252 214.59V213.06C705.252 211.86 704.862 210.93 704.082 210.27C703.302 209.61 701.862 209.28 699.762 209.28H692.202C689.442 209.28 686.952 208.89 684.732 208.11C682.512 207.27 680.742 205.89 679.422 203.97C678.162 202.05 677.532 199.44 677.532 196.14V193.35C677.532 190.29 678.132 187.71 679.332 185.61C680.532 183.51 682.542 181.92 685.362 180.84C688.182 179.76 692.052 179.22 696.972 179.22C698.952 179.22 701.052 179.34 703.272 179.58C705.552 179.76 707.682 180.03 709.662 180.39C711.702 180.75 713.322 181.11 714.522 181.47V189.3H694.272C692.532 189.3 691.212 189.6 690.312 190.2C689.412 190.74 688.962 191.79 688.962 193.35V194.79C688.962 196.35 689.442 197.37 690.402 197.85C691.362 198.33 692.832 198.57 694.812 198.57H702.552C707.472 198.57 711.042 199.71 713.262 201.99C715.542 204.21 716.682 207.3 716.682 211.26V215.58C716.682 220.5 714.972 223.89 711.552 225.75C708.192 227.61 703.362 228.54 697.062 228.54Z" fill="#4C68EF"/>
<path d="M745.184 228V161.4H773.264C775.424 161.4 777.614 161.67 779.834 162.21C782.114 162.69 784.184 163.71 786.044 165.27C787.964 166.77 789.494 169.05 790.634 172.11C791.834 175.17 792.434 179.22 792.434 184.26C792.434 189.36 791.834 193.47 790.634 196.59C789.494 199.65 787.994 201.99 786.134 203.61C784.274 205.23 782.264 206.31 780.104 206.85C777.944 207.39 775.844 207.66 773.804 207.66C772.364 207.66 770.624 207.57 768.584 207.39C766.604 207.21 764.684 207 762.824 206.76C760.964 206.52 759.524 206.34 758.504 206.22V228H745.184ZM758.504 195.69H771.734C774.074 195.69 775.874 194.82 777.134 193.08C778.394 191.34 779.024 188.43 779.024 184.35C779.024 180.33 778.364 177.51 777.044 175.89C775.784 174.21 774.104 173.37 772.004 173.37H758.504V195.69ZM798.653 228V179.67H808.913L811.973 187.05C813.713 184.83 815.663 182.94 817.823 181.38C820.043 179.82 822.653 179.04 825.653 179.04C826.313 179.04 826.973 179.07 827.633 179.13C828.353 179.19 829.013 179.31 829.613 179.49V193.17C828.653 193.05 827.663 192.96 826.643 192.9C825.683 192.78 824.783 192.72 823.943 192.72C821.303 192.72 819.053 193.17 817.193 194.07C815.333 194.91 813.593 196.2 811.973 197.94V228H798.653ZM855.609 228.45C850.269 228.45 845.979 227.7 842.739 226.2C839.499 224.64 837.129 222.06 835.629 218.46C834.189 214.86 833.469 209.94 833.469 203.7C833.469 197.1 834.219 192.03 835.719 188.49C837.219 184.89 839.589 182.4 842.829 181.02C846.069 179.64 850.329 178.95 855.609 178.95C860.949 178.95 865.239 179.67 868.479 181.11C871.779 182.55 874.149 185.07 875.589 188.67C877.089 192.27 877.839 197.28 877.839 203.7C877.839 210.12 877.119 215.13 875.679 218.73C874.239 222.33 871.899 224.85 868.659 226.29C865.419 227.73 861.069 228.45 855.609 228.45ZM855.609 217.83C857.709 217.83 859.419 217.53 860.739 216.93C862.059 216.33 863.019 215.04 863.619 213.06C864.219 211.02 864.519 207.9 864.519 203.7C864.519 199.44 864.219 196.32 863.619 194.34C863.019 192.36 862.059 191.07 860.739 190.47C859.419 189.87 857.709 189.57 855.609 189.57C853.509 189.57 851.799 189.87 850.479 190.47C849.219 191.07 848.289 192.36 847.689 194.34C847.089 196.32 846.789 199.44 846.789 203.7C846.789 207.9 847.089 211.02 847.689 213.06C848.289 215.04 849.219 216.33 850.479 216.93C851.799 217.53 853.509 217.83 855.609 217.83ZM903.237 228C897.657 228 893.637 226.74 891.177 224.22C888.777 221.7 887.667 217.23 887.847 210.81L888.297 190.38H880.737V181.83L888.747 179.67L890.547 166.17H901.077V179.67H912.417V190.38H901.077V210.72C901.077 213.36 901.557 215.13 902.517 216.03C903.477 216.87 904.587 217.38 905.847 217.56L911.967 218.1V228H903.237ZM938.757 228.45C933.417 228.45 929.127 227.7 925.887 226.2C922.647 224.64 920.277 222.06 918.777 218.46C917.337 214.86 916.617 209.94 916.617 203.7C916.617 197.1 917.367 192.03 918.867 188.49C920.367 184.89 922.737 182.4 925.977 181.02C929.217 179.64 933.477 178.95 938.757 178.95C944.097 178.95 948.387 179.67 951.627 181.11C954.927 182.55 957.297 185.07 958.737 188.67C960.237 192.27 960.987 197.28 960.987 203.7C960.987 210.12 960.267 215.13 958.827 218.73C957.387 222.33 955.047 224.85 951.807 226.29C948.567 227.73 944.217 228.45 938.757 228.45ZM938.757 217.83C940.857 217.83 942.567 217.53 943.887 216.93C945.207 216.33 946.167 215.04 946.767 213.06C947.367 211.02 947.667 207.9 947.667 203.7C947.667 199.44 947.367 196.32 946.767 194.34C946.167 192.36 945.207 191.07 943.887 190.47C942.567 189.87 940.857 189.57 938.757 189.57C936.657 189.57 934.947 189.87 933.627 190.47C932.367 191.07 931.437 192.36 930.837 194.34C930.237 196.32 929.937 199.44 929.937 203.7C929.937 207.9 930.237 211.02 930.837 213.06C931.437 215.04 932.367 216.33 933.627 216.93C934.947 217.53 936.657 217.83 938.757 217.83ZM986.835 228.54C982.875 228.54 979.365 227.82 976.305 226.38C973.305 224.94 970.935 222.45 969.195 218.91C967.455 215.37 966.585 210.42 966.585 204.06C966.585 197.46 967.395 192.36 969.015 188.76C970.635 185.1 972.975 182.55 976.035 181.11C979.095 179.67 982.815 178.95 987.195 178.95C990.135 178.95 992.925 179.13 995.565 179.49C998.265 179.79 1001.08 180.36 1004.02 181.2V188.85H991.335C988.575 188.85 986.355 189.27 984.675 190.11C982.995 190.89 981.765 192.39 980.985 194.61C980.265 196.77 979.905 199.89 979.905 203.97C979.905 208.05 980.265 211.14 980.985 213.24C981.765 215.28 982.995 216.66 984.675 217.38C986.415 218.1 988.695 218.46 991.515 218.46H1004.74V226.02C1002.52 226.74 999.765 227.34 996.465 227.82C993.165 228.3 989.955 228.54 986.835 228.54ZM1031.05 228.45C1025.71 228.45 1021.42 227.7 1018.18 226.2C1014.94 224.64 1012.57 222.06 1011.07 218.46C1009.63 214.86 1008.91 209.94 1008.91 203.7C1008.91 197.1 1009.66 192.03 1011.16 188.49C1012.66 184.89 1015.03 182.4 1018.27 181.02C1021.51 179.64 1025.77 178.95 1031.05 178.95C1036.39 178.95 1040.68 179.67 1043.92 181.11C1047.22 182.55 1049.59 185.07 1051.03 188.67C1052.53 192.27 1053.28 197.28 1053.28 203.7C1053.28 210.12 1052.56 215.13 1051.12 218.73C1049.68 222.33 1047.34 224.85 1044.1 226.29C1040.86 227.73 1036.51 228.45 1031.05 228.45ZM1031.05 217.83C1033.15 217.83 1034.86 217.53 1036.18 216.93C1037.5 216.33 1038.46 215.04 1039.06 213.06C1039.66 211.02 1039.96 207.9 1039.96 203.7C1039.96 199.44 1039.66 196.32 1039.06 194.34C1038.46 192.36 1037.5 191.07 1036.18 190.47C1034.86 189.87 1033.15 189.57 1031.05 189.57C1028.95 189.57 1027.24 189.87 1025.92 190.47C1024.66 191.07 1023.73 192.36 1023.13 194.34C1022.53 196.32 1022.23 199.44 1022.23 203.7C1022.23 207.9 1022.53 211.02 1023.13 213.06C1023.73 215.04 1024.66 216.33 1025.92 216.93C1027.24 217.53 1028.95 217.83 1031.05 217.83ZM1075.43 228.18C1070.33 228.18 1066.52 226.92 1064 224.4C1061.54 221.88 1060.31 217.89 1060.31 212.43V159.33H1073.63V210.45C1073.63 213.15 1074.05 215.04 1074.89 216.12C1075.73 217.14 1076.99 217.77 1078.67 218.01L1082.36 218.55V228.18H1075.43Z" fill="#232323"/>
<defs>
<linearGradient id="paint0_linear" x1="0" y1="0" x2="611.231" y2="529.733" gradientUnits="userSpaceOnUse">
<stop stop-color="white"/>
<stop offset="1" stop-color="#E6EAFF"/>
</linearGradient>
<linearGradient id="paint1_linear" x1="1482" y1="1.69384e-05" x2="1076.7" y2="565.164" gradientUnits="userSpaceOnUse">
<stop offset="0.122995" stop-color="#A8B7FF"/>
<stop offset="1" stop-color="#D2DAFF" stop-opacity="0"/>
</linearGradient>
</defs>
</svg>
