<svg width="288" height="355" viewBox="0 0 288 355" fill="none" xmlns="http://www.w3.org/2000/svg">
<path d="M178.227 196.28C184.855 197.839 191.492 193.73 193.051 187.102C194.61 180.473 190.501 173.836 183.872 172.277C177.244 170.718 170.607 174.828 169.048 181.456C167.489 188.084 171.598 194.721 178.227 196.28Z" fill="white"/>
<path d="M121.166 71.4179L162.472 75.0951L161.116 74.9673L119.753 71.2609L121.166 71.4179Z" fill="url(#paint0_linear)"/>
<path d="M82.417 88.085C113.202 44.044 156.701 47.5569 179.41 95.941C202.12 144.325 195.734 219.241 165.014 263.297C134.294 307.353 90.7301 303.825 68.0106 255.484C45.291 207.143 51.6354 132.161 82.417 88.085Z" fill="#4C68EF"/>
<path d="M79.7 82.3167C112.504 35.335 158.809 39.0766 183.093 90.6567C207.377 142.237 200.485 222.106 167.675 269.063C134.865 316.021 88.595 312.276 64.2894 260.691C39.9839 209.106 46.8952 129.253 79.7 82.3167ZM164.874 263.264C195.659 219.223 202.119 144.28 179.324 95.9209C156.529 47.5621 113.113 44.0346 82.3311 88.0649C51.5489 132.095 45.0862 207.049 67.9247 255.463C90.7632 303.878 134.222 307.37 164.917 263.274" fill="white"/>
<path d="M213.346 43.169C210.673 40.6279 207.806 38.2993 204.771 36.2044C202.117 34.3896 199.327 32.7813 196.427 31.3936C191.027 28.7963 185.231 27.1186 179.279 26.4298L138.664 22.8123C141.597 23.1519 144.495 23.7424 147.327 24.5775C150.219 25.4156 153.037 26.4883 155.753 27.7849C158.653 29.18 161.44 30.7956 164.092 32.6173C167.129 34.7045 169.998 37.0259 172.673 39.5603C176.075 42.7678 179.216 46.2425 182.065 49.9512C186.624 55.8933 190.607 62.2562 193.959 68.9537L195.805 72.588C200.971 83.7415 204.928 95.4156 207.61 107.411C209.855 117.16 211.43 127.051 212.324 137.015C212.841 142.538 213.477 150.449 213.618 156.747L213.392 156.694C213.461 162.384 213.358 168.034 213.042 173.769C212.779 179.003 212.354 184.237 211.766 189.47C211.198 194.488 210.537 199.519 209.647 204.462C208.757 209.404 207.819 214.358 206.702 219.202C205.585 224.046 204.222 229.263 202.753 234.16C201.145 239.547 199.396 244.719 197.452 249.799C195.074 256.049 192.417 262.04 189.575 267.851C185.924 275.206 181.745 282.286 177.068 289.035C157.022 317.718 132.842 330.834 109.995 328.774L150.626 332.418C173.502 334.451 197.632 321.357 217.67 292.707C222.347 285.957 226.526 278.877 230.177 271.522C233.054 265.723 235.687 259.708 238.075 253.476C240.026 248.397 241.79 243.183 243.365 237.834C244.824 232.935 246.148 227.935 247.326 222.879C248.504 217.822 249.421 213.101 250.271 208.138C251.12 203.174 251.822 198.165 252.368 193.141C252.914 188.118 253.385 182.691 253.644 177.441C253.945 171.754 254.06 166.069 253.989 160.386C253.886 153.735 253.566 147.135 252.968 140.605C252.053 130.647 250.477 120.761 248.251 111.012V111.012C245.534 99.0124 241.56 87.3324 236.395 76.1657L235.451 74.1961C231.928 66.9056 227.676 59.9898 222.762 53.5542C219.904 49.8479 216.756 46.3752 213.346 43.169V43.169Z" fill="#4C68EF"/>
<path d="M70.295 62.3341C110.132 5.32941 166.303 9.87092 195.802 72.4255C225.301 134.98 216.914 231.962 177.101 288.961C137.288 345.96 81.0882 341.446 51.5539 278.849C22.0195 216.252 30.4638 119.363 70.295 62.3341ZM167.673 269.074C200.478 222.138 207.399 142.242 183.091 90.668C158.783 39.0936 112.505 35.3355 79.7005 82.3172C46.8964 129.299 39.9743 209.149 64.2799 260.734C88.5854 312.32 134.871 316.045 167.675 269.064" fill="#4C68EF"/>
<path d="M213.36 43.169C210.687 40.6279 207.82 38.2993 204.785 36.2044C202.13 34.3896 199.341 32.7813 196.441 31.3936C191.041 28.7963 185.245 27.1186 179.292 26.4298L138.678 22.8123C141.611 23.1519 144.509 23.7424 147.341 24.5775C150.232 25.4157 153.05 26.4884 155.767 27.7849C158.666 29.1801 161.454 30.7956 164.106 32.6173C167.143 34.7045 170.011 37.0259 172.686 39.5603C176.089 42.7678 179.23 46.2425 182.078 49.9512C186.637 55.8933 190.62 62.2562 193.973 68.9537L195.819 72.588C200.984 83.7415 204.942 95.4156 207.623 107.411C209.869 117.16 211.444 127.051 212.338 137.015C212.854 142.538 213.49 150.449 213.632 156.747L213.406 156.694C213.475 162.384 213.372 168.034 213.055 173.769C212.793 179.003 212.367 184.237 211.78 189.47C211.212 194.488 210.551 199.519 209.661 204.462C208.771 209.404 207.832 214.358 206.716 219.202C205.599 224.046 204.236 229.263 202.766 234.16C201.159 239.547 199.409 244.719 197.465 249.799C195.088 256.049 192.43 262.04 189.588 267.851C185.938 275.206 181.758 282.286 177.082 289.035C157.036 317.718 132.855 330.834 110.008 328.774L150.639 332.418C173.516 334.451 197.646 321.357 217.684 292.707C222.36 285.957 226.54 278.877 230.19 271.522C233.067 265.723 235.7 259.708 238.089 253.476C240.04 248.397 241.803 243.183 243.379 237.834C244.838 232.935 246.161 227.935 247.339 222.879C248.517 217.822 249.435 213.101 250.284 208.138C251.134 203.174 251.836 198.165 252.382 193.141C252.928 188.118 253.398 182.691 253.657 177.441C253.958 171.754 254.074 166.07 254.003 160.387C253.899 153.735 253.579 147.135 252.982 140.605C252.066 130.647 250.491 120.761 248.265 111.012V111.012C245.548 99.0124 241.574 87.3324 236.409 76.1657L235.465 74.1961C231.941 66.9056 227.69 59.9898 222.776 53.5542C219.918 49.8479 216.769 46.3752 213.36 43.169V43.169Z" fill="url(#paint1_linear)"/>
<rect width="105.459" height="38.9643" rx="19.4821" transform="matrix(0.558036 -0.495785 0.508645 1.08815 74.2812 165.283)" fill="url(#paint2_linear)" fill-opacity="0.5"/>
<g filter="url(#filter0_f)">
<rect width="105.459" height="38.9643" rx="19.4821" transform="matrix(0.161481 1.19026 -0.737596 -0.114713 143.482 123.086)" fill="#F7F7F7"/>
</g>
<rect width="105.459" height="46.1437" rx="23.0718" transform="matrix(0.161481 1.19026 -0.737596 -0.114713 144.412 123.231)" fill="#F7F7F7"/>
<g filter="url(#filter1_f)">
<rect width="105.459" height="40.0046" rx="20.0023" transform="matrix(0.558036 -0.495785 0.508645 1.08815 73.7524 164.151)" fill="url(#paint3_linear)" fill-opacity="0.5"/>
</g>
<defs>
<filter id="filter0_f" x="107.545" y="110.742" width="60.1645" height="145.742" filterUnits="userSpaceOnUse" color-interpolation-filters="sRGB">
<feFlood flood-opacity="0" result="BackgroundImageFix"/>
<feBlend mode="normal" in="SourceGraphic" in2="BackgroundImageFix" result="shape"/>
<feGaussianBlur stdDeviation="5" result="effect1_foregroundBlur"/>
</filter>
<filter id="filter1_f" x="71.9854" y="111.624" width="82.7325" height="96.2997" filterUnits="userSpaceOnUse" color-interpolation-filters="sRGB">
<feFlood flood-opacity="0" result="BackgroundImageFix"/>
<feBlend mode="normal" in="SourceGraphic" in2="BackgroundImageFix" result="shape"/>
<feGaussianBlur stdDeviation="4" result="effect1_foregroundBlur"/>
</filter>
<linearGradient id="paint0_linear" x1="-675.961" y1="3547.34" x2="-685.769" y2="3589.03" gradientUnits="userSpaceOnUse">
<stop offset="0.01" stop-color="#835C1F"/>
<stop offset="0.41" stop-color="#AA812A"/>
<stop offset="0.79" stop-color="#C99D32"/>
<stop offset="1" stop-color="#D4A835"/>
</linearGradient>
<linearGradient id="paint1_linear" x1="179.493" y1="367.994" x2="186.894" y2="16.2569" gradientUnits="userSpaceOnUse">
<stop offset="0.06" stop-color="#666666" stop-opacity="0.23"/>
<stop offset="0.88" stop-color="white" stop-opacity="0"/>
</linearGradient>
<linearGradient id="paint2_linear" x1="14.7485" y1="19.4458" x2="78.7832" y2="21.0808" gradientUnits="userSpaceOnUse">
<stop stop-color="white" stop-opacity="0.8"/>
</linearGradient>
<linearGradient id="paint3_linear" x1="14.7485" y1="19.965" x2="78.7854" y2="21.5575" gradientUnits="userSpaceOnUse">
<stop stop-color="white" stop-opacity="0.8"/>
</linearGradient>
</defs>
</svg>
